<svg width="620" height="706" viewBox="0 0 620 706" fill="none" xmlns="http://www.w3.org/2000/svg"><g style="mix-blend-mode:lighten"><circle cx="460" cy="167" r="114" fill="url(#paint0_radial_5510_6830)" fill-opacity="0.4"/></g><g style="mix-blend-mode:plus-darker" opacity="0.5" clip-path="url(#clip0_5510_6830)"><path d="M487.039 394.06V231.94L447.527 213.394H407.786V167H405.847V213.394H374.071V339.215H368.879V350.268H371.527V367.918H355.618V372.518C350.593 370.041 344.943 368.605 338.938 368.605C330.222 368.605 322.216 371.581 315.814 376.556V260.413L301.198 256.396L293.734 254.336L273.884 248.882V620.829H288.354V636.19H320.631L343.254 636.565V637.147H377.949L488.707 638.979V636.211L486.601 634.65C487.498 635.149 488.248 635.67 488.895 636.211L488.957 622.453L489.02 608.362L489.083 593.667L489.166 575.267L489.208 563.965L489.291 545.566L489.374 531.183C489.374 531.183 489.562 531.266 489.666 531.287L489.729 517.217C489.729 517.217 489.541 517.134 489.437 517.092L489.52 498.859C489.52 498.859 489.604 498.901 489.645 498.921L489.708 484.851C489.708 484.851 489.604 484.81 489.562 484.789L489.645 469.282L489.708 455.212L489.771 442.453L489.854 424.928L489.917 411.544L490 396.329C489.395 395.601 488.353 394.83 487.039 393.998V394.06Z" fill="url(#paint1_linear_5510_6830)"/><path d="M255.66 219.139H253.429V250.027L234.309 251.089V234.604H232.078V251.214L211.541 252.359V293.362L174.051 288.679H175.448V251.547H173.217V288.575L159.581 286.889L111.02 289.99V302.895V305.081V326.124L102.346 326.519H102.263L79.4316 327.539V341.776L82.0379 341.672V360.717L79.4316 360.821V374.995L82.0379 374.891V392.167L73.7394 392.5V406.653L82.0379 406.341V422.409L73.7394 422.722V436.896L82.0379 436.584V451.487L73.7394 451.799V465.973L82.0379 465.661V480.918L73.7394 481.23V495.404L82.0379 495.071V510.016L64.2732 510.265V524.44L82.0379 524.19V539.03L59.8112 539.322V550.457V568.774L35.9999 584.78V618.519H126.033V617.832H128.722H133.309V620.184V620.205H211.541V620.85H235.561H273.863V485.83V248.883L255.66 249.903V219.139Z" fill="url(#paint2_linear_5510_6830)"/><path d="M129.014 260.393H126.783V288.68H129.014V260.393Z" fill="#C4E3FF"/></g><g clip-path="url(#clip1_5510_6830)"><path d="M616.32 14.9891C617.263 16.1081 618.218 17.227 619.162 18.3459C620.223 20.444 621.615 21.8193 624.409 21.3648C625.447 21.2016 626.65 21.9475 627.77 22.2739C627.629 25.0013 629.091 28.4514 624.421 29.1157C621.674 30.596 619.421 33.2651 615.494 31.1555C614.232 30.4794 611.862 31.5867 610.058 32.0646C609.61 32.1812 608.973 33.2069 609.114 33.5332C609.397 34.1626 610.14 34.9785 610.742 35.0135C612.711 35.1184 614.704 34.9319 616.685 34.792C620.648 34.5239 624.61 34.2325 628.572 33.9528C630.801 33.6614 633.03 33.3817 635.247 33.0903C636.591 33.5332 637.936 33.9761 639.28 34.419C640.117 34.4773 640.966 34.5472 641.804 34.6055L643.242 34.3724C645.118 37.9157 648.82 36.9017 651.839 37.4029C652.83 37.5661 655.118 38.1721 654.752 35.6079C655.306 35.9226 655.861 36.2373 656.415 36.5404C656.474 37.2047 656.545 37.8691 656.604 38.5335C654.068 38.8831 651.545 39.2328 649.009 39.5825C644.174 40.0604 639.363 40.6664 634.516 40.9811C628.16 41.4007 621.803 41.5872 615.435 41.867C614.869 41.9136 614.291 41.9486 613.725 41.9952C609.185 42.508 604.657 43.0325 600.116 43.5454C599.727 43.4988 599.338 43.4405 598.949 43.3939C596.803 43.627 594.645 43.8484 592.498 44.0815C591.496 43.9999 590.505 43.8484 589.503 43.8251C584.621 43.7086 580.01 46.739 574.845 44.5827C573.312 43.9417 570.269 44.3263 569.208 45.4219C566.366 48.3358 563.005 48.0328 559.526 48.2309C558.712 48.2776 557.969 49.4315 557.203 50.0842C554.879 49.7695 552.556 49.4548 550.233 49.1517C547.981 48.6039 545.775 45.9115 543.441 49.0119C541.955 48.2309 540.516 46.9721 538.947 46.7856C537.19 46.5875 535.327 47.3568 533.499 47.7064C530.787 46.5059 528.075 45.3054 525.268 44.0466V45.7483C524.796 45.7949 524.313 45.8415 523.841 45.8998C523.346 45.5735 522.839 44.9557 522.343 44.9557C517.06 44.9441 511.777 45.0256 506.494 45.0723C506.364 44.8858 506.187 44.8275 505.963 44.8974C505.598 44.7226 505.232 44.5361 504.866 44.3613C504.395 44.7692 503.911 45.1655 503.958 45.1305C502.166 44.1631 500.586 43.3239 499.017 42.4731C497.696 42.0068 496.411 41.3541 495.055 41.0977C490.279 40.2002 485.479 39.4309 480.691 38.6151C483.026 38.3353 485.361 38.009 487.696 37.7875C490.397 37.5427 493.369 36.6103 495.762 37.3446C501.258 39.0347 506.517 40.3401 512.119 38.0556C512.827 37.7642 513.947 37.6243 514.513 37.9623C519.136 40.7247 523.994 38.1372 528.735 38.4868C534.761 38.9298 540.964 37.8108 547.014 36.9017C552.945 36.0159 558.736 34.2908 564.844 34.8386C565.151 34.8619 565.493 34.5006 566.719 33.8129C563.983 32.6707 561.861 31.7965 559.75 30.9107C558.335 30.0365 556.931 29.1507 555.516 28.2765C561.177 24.8032 567.651 26.33 573.748 25.5141C574.078 25.4675 574.444 25.8988 574.833 26.0153C575.328 26.1669 576.201 26.4233 576.307 26.2718C578.418 23.0432 582.439 24.4302 585.187 22.7867C587.475 22.9499 589.762 23.1247 592.05 23.2879C591.178 21.4114 589.432 19.0803 588.335 19.3367C584.314 20.2808 579.915 17.0172 576.248 20.409C573.83 19.3134 572.675 17.3086 572.038 14.9309C570.611 11.1894 565.422 10.5483 562.085 13.7187C559.714 13.7769 557.332 13.8352 554.962 13.8935C554.089 13.9751 553.217 14.0683 552.332 14.1499C551.33 14.3015 550.339 14.453 549.337 14.6045C550.776 13.6837 552.096 12.4832 553.665 11.9004C556.259 10.933 559.302 10.8164 561.637 9.49934C565.847 7.13325 571.212 7.22649 575.175 10.222C575.941 10.8048 577.368 10.863 578.43 10.7348C580.14 10.525 581.814 9.96556 583.5 9.55762C585.199 9.48768 586.885 9.41775 588.583 9.34782H593.937C594.055 9.03311 594.161 8.70676 594.279 8.39205C593.159 7.66941 592.038 6.94676 590.918 6.22411L590.883 4.81378C591.92 5.01193 592.958 5.34994 593.996 5.38491C596.838 5.50146 599.68 5.50146 602.51 5.54809C606.579 8.1706 610.647 10.8048 614.704 13.4273C615.235 13.9401 615.777 14.4646 616.308 14.9775L616.32 14.9891Z" fill="#215241"/><path d="M583.512 9.56938C581.826 9.97733 580.163 10.5485 578.441 10.7466C577.38 10.8748 575.953 10.8165 575.187 10.2338C571.224 7.2266 565.859 7.13336 561.649 9.5111C559.314 10.8282 556.271 10.9447 553.677 11.9122C552.108 12.4949 550.787 13.6955 549.349 14.6163C550.151 15.1524 550.953 15.7002 551.754 16.248C551.955 15.5487 552.144 14.861 552.344 14.1617C553.217 14.0801 554.089 13.9869 554.974 13.9053C555.151 15.0475 555.339 16.1898 555.493 17.1106C557.934 16.621 560.104 16.1898 562.285 15.7585C564.561 16.4229 566.814 17.5768 568.795 14.9193C569.16 14.4298 570.941 14.9193 572.062 14.9426C572.698 17.3087 573.854 19.3135 576.272 20.4208C577.415 20.4907 578.772 20.9686 579.668 20.5373C582.592 19.162 584.173 20.1993 585.21 22.7985C582.475 24.4419 578.441 23.0549 576.33 26.2835C576.224 26.4351 575.352 26.1786 574.856 26.0271C574.479 25.9106 574.102 25.4793 573.771 25.5259C567.675 26.3418 561.189 24.8149 555.54 28.2883C553.854 28.3932 552.167 28.4748 550.481 28.603C548.264 28.7662 546.047 28.9643 543.83 29.1508C543.877 29.7452 543.912 30.3397 543.959 30.9225H559.773C561.884 31.7966 564.007 32.6825 566.743 33.8247C565.517 34.5124 565.175 34.8737 564.868 34.8504C558.759 34.3026 552.957 36.0276 547.037 36.9135C540.988 37.8226 534.785 38.9415 528.759 38.4986C524.018 38.1489 519.159 40.7365 514.537 37.9741C513.959 37.6361 512.85 37.776 512.143 38.0674C506.541 40.3402 501.27 39.0348 495.786 37.3564C493.392 36.6221 490.42 37.5429 487.72 37.7993C485.373 38.0207 483.05 38.3471 480.703 38.6268C480.538 38.6618 480.397 38.7201 480.267 38.825C478.922 37.6827 475.031 38.1956 477.378 34.6639C478.168 33.6499 478.958 32.6358 479.748 31.6101C481.47 31.074 483.415 30.8758 484.854 29.9551C487.897 27.9853 490.81 26.7264 494.678 27.4841C497.39 28.0202 500.303 27.589 503.274 26.9246C501.73 26.4117 500.185 25.8989 498.357 25.3045C499.265 22.1808 500.963 20.3392 504.253 19.5116C508.216 18.5209 511.954 16.5511 515.952 15.91C520.728 15.1408 525.751 13.7071 530.469 16.5627C532.591 17.8449 534.749 18.3694 536.66 16.1198C537.002 15.7235 537.509 15.1058 537.874 15.1524C543.216 15.8284 546.542 12.2036 550.363 9.73256C552.049 8.64859 553.382 7.06342 554.903 5.72303C555.469 5.22184 556.247 4.27773 556.66 4.39429C560.682 5.53654 562.769 2.45946 565.505 0.816016C575.894 -0.640936 586.201 -0.116433 596.437 2.01654C598.465 3.19376 600.494 4.37098 602.522 5.54819C599.68 5.50157 596.838 5.50157 594.008 5.38502C592.958 5.33839 591.932 5.01204 590.895 4.81389C589.267 4.80224 587.64 4.65071 586.036 4.81389C584.668 4.9421 583.335 5.43164 581.991 5.758C582.498 7.02846 583.017 8.29892 583.524 9.56938H583.512Z" fill="#7FB328"/><path d="M624.433 29.1274C625.707 29.2556 627.145 29.0808 628.219 29.5936C629.822 30.3629 631.179 31.6333 632.641 32.694C631.296 33.1136 629.94 33.5449 628.596 33.9645C624.634 34.2442 620.671 34.5472 616.709 34.8037C614.728 34.9319 612.735 35.1184 610.765 35.0251C610.176 34.9902 609.421 34.1743 609.138 33.5449C608.996 33.2302 609.621 32.2045 610.081 32.0763C611.886 31.5984 614.256 30.4794 615.518 31.1671C619.445 33.2768 621.697 30.6076 624.445 29.1274H624.433Z" fill="#7FB328"/><path d="M572.05 14.9425C570.918 14.9075 569.137 14.4296 568.783 14.9192C566.814 17.5767 564.561 16.4111 562.274 15.7584C562.215 15.0824 562.156 14.4063 562.097 13.7303C565.434 10.5716 570.623 11.201 572.05 14.9425Z" fill="#2A6036"/><path d="M583.512 9.56926C583.005 8.2988 582.486 7.02834 581.979 5.75788C583.324 5.43152 584.656 4.94198 586.024 4.81377C587.628 4.66225 589.267 4.81377 590.883 4.81377C590.883 5.28 590.906 5.75788 590.918 6.2241C587.321 6.95841 586.932 7.49456 588.583 9.34781C586.885 9.41774 585.199 9.48767 583.5 9.55761L583.512 9.56926Z" fill="#347632"/><path d="M585.199 22.7984C584.161 20.1992 582.581 19.1618 579.656 20.5372C578.76 20.9568 577.404 20.4789 576.26 20.4206C579.927 17.0288 584.326 20.2924 588.347 19.3483C589.444 19.0919 591.189 21.423 592.062 23.2996C589.774 23.1364 587.486 22.9615 585.199 22.7984Z" fill="#7AB14E"/><path d="M559.773 30.9223H543.959C543.912 30.3279 543.877 29.7335 543.83 29.1507C546.047 28.9642 548.264 28.7661 550.481 28.6029C552.167 28.4747 553.854 28.3931 555.54 28.2882C556.955 29.1623 558.358 30.0482 559.773 30.9223Z" fill="#2A6036"/><path d="M562.097 13.7303C562.156 14.4063 562.215 15.0824 562.274 15.7584C560.104 16.1897 557.934 16.6209 555.481 17.1104C555.328 16.178 555.151 15.0357 554.962 13.9052C557.332 13.8469 559.715 13.7886 562.085 13.7303H562.097Z" fill="#7AB14E"/><path d="M588.583 9.35945C586.92 7.50621 587.321 6.98171 590.918 6.23575C592.038 6.9584 593.159 7.68104 594.279 8.39204C594.161 8.70674 594.055 9.0331 593.937 9.3478H588.583V9.35945Z" fill="#7FB328"/><path d="M552.344 14.1616C552.144 14.8609 551.955 15.5486 551.754 16.2479C550.953 15.7001 550.139 15.1523 549.349 14.6161C550.351 14.4646 551.353 14.3131 552.344 14.1616Z" fill="#7AB14E"/><path d="M473.828 161.232L493.734 168.365V160.288L473.828 161.232Z" fill="#264C6B"/><path d="M583.17 148.341H493.734V173.447H583.17V148.341Z" fill="url(#paint3_linear_5510_6830)"/><path d="M577.852 24.4768L656.391 35.095V543.863H584.55L577.852 24.4768Z" fill="url(#paint4_linear_5510_6830)"/><path d="M473.05 543V329.213L467 323.233V175.487L583.182 169.647V257.612L588.159 262.531V543H473.05Z" fill="white"/><path d="M582.144 41.7038V41.8786L477.932 46.6574V33.2185L494.501 32.4609V45.725L582.144 41.7038Z" fill="#3D98E0"/><path d="M582.144 28.4513V28.463L522.697 31.1787V44.4312L494.501 45.7249V32.4609L582.144 28.4513Z" fill="#4BA7E4"/><path d="M582.144 28.463V41.7038L522.697 44.4312V31.1787L582.144 28.463Z" fill="#264C6B"/><path d="M584.809 41.3658V156.139L514.36 159.379L512.06 159.484L473.828 161.232V28.3814L581.46 23.6143V28.8943L478.981 33.4283V46.3077L584.809 41.3658Z" fill="white"/><path d="M477.248 84.2001L564.373 81.5193V86.135L477.248 88.8274V84.2001Z" fill="url(#paint5_linear_5510_6830)"/><path d="M467 300.027L554.125 297.346V301.962L467 304.654V300.027Z" fill="#4BA7E4"/><path d="M584.81 80.8783V85.5056L566.531 86.065V81.4494L584.81 80.8783Z" fill="#264C6B"/><path d="M513.204 44.8042V159.425L512.06 159.484V44.8042H513.204Z" fill="#4BA7E4"/><path d="M513.204 172.561V353.876L512.06 353.934V172.561H513.204Z" fill="#4BA7E4"/><path d="M513.204 353.876V444.557L512.06 444.615V353.934L513.204 353.876Z" fill="url(#paint6_linear_5510_6830)"/></g><g clip-path="url(#clip2_5510_6830)"><path d="M261.844 191.769V233.808L279.324 237.737V548.802L437.428 541.318L453.114 540.567V153.153L408.215 133.667L400.818 126.254L320.626 134.398L319.805 136.063L300.603 139.749V186.062L261.844 191.769Z" fill="white"/><path d="M260.77 231.31H454.178C454.178 224.699 410.88 219.358 357.479 219.358C304.078 219.358 260.77 224.699 260.77 231.31Z" fill="url(#paint7_linear_5510_6830)"/><path d="M260 233.534C260 240.977 303.643 247.018 357.479 247.018C411.316 247.018 454.958 240.977 454.958 233.534C454.958 226.091 411.316 220.049 357.489 220.049C303.663 220.049 260.01 226.08 260.01 233.534H260Z" fill="#06344F"/><path d="M279.678 235.016V548.792H444.299V239.667L410.353 231.696V227.654L406.047 227.685C363.822 228.01 321.649 230.447 279.688 235.016H279.678Z" fill="white"/><path d="M279.324 259.539V278.689C306.115 274.973 337.993 273.947 372.334 272.424V254.573C368.524 254.654 364.694 254.756 360.833 254.857C331.802 255.68 304.21 257.315 279.324 259.539Z" fill="url(#paint8_linear_5510_6830)"/><path d="M279.324 305.324V324.475C306.115 320.759 337.994 319.733 372.334 318.21V300.359C368.524 300.44 364.694 300.541 360.833 300.643C331.802 301.466 304.21 303.1 279.324 305.324Z" fill="url(#paint9_linear_5510_6830)"/><path d="M279.324 351.109V370.26C306.115 366.544 337.994 365.518 372.334 363.995V346.144C368.524 346.225 364.694 346.327 360.833 346.428C331.802 347.251 304.21 348.886 279.324 351.109Z" fill="url(#paint10_linear_5510_6830)"/><path d="M279.324 395.534V414.685C306.115 410.968 337.994 409.943 372.334 408.42V390.569C368.524 390.65 364.694 390.751 360.833 390.853C331.802 391.675 304.21 393.31 279.324 395.534Z" fill="url(#paint11_linear_5510_6830)"/><path d="M279.324 424.991V444.142C306.115 440.426 337.994 439.4 372.334 437.877V420.026C368.524 420.107 364.694 420.209 360.833 420.31C331.802 421.133 304.21 422.768 279.324 424.991Z" fill="url(#paint12_linear_5510_6830)"/><path d="M400.828 126.254V193.231L453.114 204.797V153.142L408.215 133.657L400.828 126.254Z" fill="url(#paint13_linear_5510_6830)"/><path d="M410.329 231.7V546.453H450.261V239.623L410.329 231.7Z" fill="url(#paint14_linear_5510_6830)"/><path d="M442.839 244.165L411.802 235.788V250.572L442.839 258.594V244.165Z" fill="url(#paint15_linear_5510_6830)"/><path d="M442.839 347.901L411.802 339.513V354.298L442.839 362.32V347.901Z" fill="url(#paint16_linear_5510_6830)"/><path d="M279.324 317.793V326.82L308.507 324.119L300.947 316.077L279.324 317.793Z" fill="white"/><path d="M279.324 364.594V373.621L308.507 370.92L300.947 362.878L279.324 364.594Z" fill="white"/><path d="M279.324 408.064V417.091L308.507 414.39L300.947 406.348L279.324 408.064Z" fill="white"/><path d="M279.324 437.278V446.315L308.507 443.614L300.947 435.562L279.324 437.278Z" fill="white"/><path d="M279.324 271.754V280.791L308.507 278.08L300.947 270.038L279.324 271.754Z" fill="white"/><path d="M279.678 259.874C279.678 259.874 327.668 253.812 410.353 253.812" stroke="url(#paint17_linear_5510_6830)" stroke-width="0.878378" stroke-miterlimit="10"/><path d="M279.678 425.601C279.678 425.601 327.668 419.539 410.353 419.539" stroke="url(#paint18_linear_5510_6830)" stroke-width="0.878378" stroke-miterlimit="10"/><path d="M279.587 462.064V481.215C306.379 477.499 338.257 476.473 372.598 474.95V457.099C368.788 457.18 364.957 457.282 361.097 457.383C332.066 458.206 304.474 459.841 279.587 462.064Z" fill="url(#paint19_linear_5510_6830)"/><path d="M279.587 474.361V483.388L308.77 480.687L301.211 472.635L279.587 474.361Z" fill="white"/><path d="M279.942 480.697C279.942 480.697 327.931 474.635 410.617 474.635" stroke="url(#paint20_linear_5510_6830)" stroke-width="0.878378" stroke-miterlimit="10"/><g style="mix-blend-mode:darken" opacity="0.54"><path d="M279.678 235.016V254.847C296.276 260.909 316.694 264.473 338.784 264.473C366.781 264.473 392.104 258.736 410.353 249.466V227.644H383.409L379.985 227.675C346.475 228 312.995 230.437 279.678 235.006V235.016Z" fill="#3477AA"/></g><path d="M300.603 156.28C300.603 156.28 339.159 149.619 405.58 148.563" stroke="url(#paint21_linear_5510_6830)" stroke-width="0.878378" stroke-miterlimit="10"/><path d="M300.603 174.152C300.603 174.152 339.159 167.49 405.58 166.434" stroke="url(#paint22_linear_5510_6830)" stroke-width="0.878378" stroke-miterlimit="10"/><path d="M390.474 171.205C398.753 172.576 407.038 173.948 415.318 175.324C416.077 175.382 416.837 175.439 417.596 175.491C418.439 176.406 419.282 177.321 420.12 178.235C420.616 178.428 421.111 178.622 421.607 178.815C423.098 179.079 424.594 179.339 426.08 179.602L426.214 179.642C429.141 180.183 432.068 180.724 434.994 181.264C435.207 181.436 435.416 181.612 435.62 181.792C425.334 182.438 415.045 183.085 404.76 183.731C404.936 184.399 405.116 185.063 405.292 185.731C421.996 186.927 438.704 188.128 455.407 189.324C455.653 189.477 455.852 189.653 456 189.86C455.866 190.603 455.736 191.346 455.602 192.089C443.265 193.896 430.933 195.703 418.597 197.51C417.768 197.475 416.943 197.435 416.119 197.4C411.298 197.589 406.478 197.783 401.657 197.972C399.61 197.616 397.568 197.26 395.521 196.903C393.298 196.873 391.08 196.842 388.857 196.811C388.436 196.794 388.019 196.78 387.598 196.763C379.911 197.875 372.223 198.988 364.541 200.1C363.92 199.902 363.3 199.704 362.679 199.511L362.624 199.502C362.726 199.278 362.689 199.062 362.513 198.864C362.147 198.196 361.786 197.532 361.42 196.864C360.776 196.569 360.132 196.279 359.489 195.985C355.233 195.892 350.977 195.795 346.721 195.703C345.953 195.611 345.179 195.523 344.411 195.431C339.493 194.38 334.575 193.325 329.661 192.274C326.952 191.72 324.239 191.166 321.53 190.616C316.167 190.445 310.805 190.278 305.442 190.106C305.067 190.04 304.697 189.974 304.322 189.904C301.21 189.64 298.093 189.376 294.981 189.112C295.041 189.42 295.097 189.728 295.157 190.04C294.921 190.067 294.787 190.159 294.745 190.326C289.364 190.577 283.983 190.827 278.602 191.073C278.032 191.219 277.467 191.368 276.898 191.513C276.124 191.605 275.351 191.702 274.578 191.794C269.72 191.144 264.858 190.497 260 189.847C262.412 187.644 264.825 185.441 267.238 183.234C281.811 184.531 296.301 183.911 310.703 181.365C299.302 183.085 292.142 181.198 289.225 175.703C294.416 175.892 298.477 176.045 302.539 176.195C302.478 175.975 302.418 175.751 302.358 175.531C327.128 175.531 351.899 175.531 374.02 175.531C366 174.194 358.396 172.058 351.209 169.129C359.628 163.264 370.584 160.96 384.078 162.218C385.569 162.354 387.061 162.49 388.556 162.627C388.214 164.451 387.866 166.272 387.524 168.096C385.852 168.703 384.18 169.314 381.041 170.453H388.649C388.649 170.453 389.121 170.567 389.117 170.567C389.561 170.778 390.01 170.994 390.464 171.205H390.474ZM378.257 186.25C378.174 186.004 378.095 185.762 378.012 185.516C376.905 185.661 375.798 185.806 374.692 185.951C374.78 186.233 374.868 186.514 374.956 186.795L378.257 186.25ZM364.439 184.909C364.629 185.331 364.819 185.758 365.009 186.18C367.662 186.197 368.584 185.578 367.764 184.311C366.611 184.518 365.523 184.711 364.439 184.905V184.909Z" fill="#1B3833"/><path d="M384.092 162.218C370.593 160.956 359.637 163.26 351.218 169.129C358.405 172.058 366.009 174.194 374.029 175.531C351.908 175.531 327.138 175.531 302.367 175.531C302.427 175.751 302.488 175.975 302.548 176.195C298.487 176.045 294.425 175.896 289.234 175.703C292.152 181.198 299.311 183.085 310.712 181.366C296.31 183.911 281.825 184.531 267.247 183.234C275.791 178.934 284.335 174.634 292.874 170.339C293.411 170.163 293.953 169.987 294.49 169.811C294.49 169.811 294.976 169.679 294.972 169.679C298.25 169.261 301.529 168.844 304.808 168.426L304.669 168.624C307.438 168.896 310.212 169.173 312.981 169.446C313.013 168.932 313.046 168.417 313.078 167.898H304.937C304.905 166.834 304.872 165.766 304.84 164.702C312.384 160.543 319.927 156.388 327.471 152.229C328.518 152.154 329.559 152.079 330.606 152.009C332.843 152.092 335.079 152.176 337.316 152.264C337.913 152.176 338.511 152.088 339.108 152C346.499 152.892 353.89 153.785 361.285 154.678C361.679 154.739 362.073 154.805 362.466 154.867C364.981 156.058 367.495 157.25 370.01 158.441L370.394 158.613L370.848 158.604C372.297 158.841 373.747 159.079 375.196 159.316L382.272 160.692C382.874 161.198 383.481 161.708 384.083 162.213L384.092 162.218Z" fill="#7DB22A"/><path d="M304.812 168.426C301.534 168.843 298.251 169.261 294.977 169.679C297.431 168.94 299.881 168.201 302.33 167.463C303.159 167.784 303.984 168.109 304.812 168.43V168.426Z" fill="#2A6036"/><path d="M435.633 181.787C442.232 184.302 448.827 186.813 455.421 189.328C438.713 188.127 422.01 186.927 405.306 185.731C405.13 185.063 404.95 184.399 404.774 183.731C415.059 183.084 425.348 182.438 435.633 181.792V181.787Z" fill="#7DB22A"/><path d="M378.257 186.25L374.956 186.795C374.868 186.514 374.78 186.232 374.692 185.951C375.798 185.806 376.905 185.661 378.012 185.516C378.095 185.762 378.174 186.004 378.257 186.25Z" fill="#7DB22A"/><path d="M364.439 184.909C365.527 184.716 366.611 184.522 367.764 184.315C368.579 185.577 367.662 186.202 365.009 186.184C364.819 185.762 364.629 185.335 364.439 184.913V184.909Z" fill="#7DB22A"/><path d="M304.678 168.628C304.771 168.386 304.863 168.14 304.956 167.902C307.665 167.902 310.379 167.902 313.092 167.902C313.06 168.417 313.027 168.931 312.995 169.45C310.226 169.177 307.452 168.9 304.683 168.628H304.678Z" fill="#2A6036"/><path d="M260 194.338V233.533C260 226.08 303.643 220.049 357.479 220.049C411.316 220.049 454.958 226.08 454.958 233.533V194.338C454.958 186.885 411.316 180.853 357.489 180.853C303.663 180.853 260.01 186.885 260.01 194.338H260Z" fill="white"/><path d="M260 205.203V230.507C260 223.054 303.653 217.033 357.489 217.033C411.326 217.033 454.958 223.054 454.958 230.507V205.203C454.958 197.75 411.306 191.729 357.479 191.729C303.653 191.729 259.99 197.76 259.99 205.203H260Z" fill="url(#paint23_linear_5510_6830)"/><rect x="450" y="152" width="4" height="37" fill="white"/></g><g clip-path="url(#clip3_5510_6830)"><path d="M677 466.682C669.767 470.693 663.109 477.205 655.202 478.219C635.024 480.802 614.277 480.932 593.759 482.05L584.933 480.842C582.367 481.086 579.801 481.333 577.235 481.586C571.147 482.451 565.064 483.312 558.967 484.168C557.328 484.087 555.699 484.01 554.056 483.929C553.572 483.722 553.11 483.726 552.648 483.965C544.384 484.438 536.128 484.916 527.859 485.389C524.523 481.559 521.174 477.733 517.838 473.902C529.067 471.685 540.292 469.459 551.521 467.237C545.705 463.298 539.898 459.368 534.082 455.438C533.512 455.028 532.946 454.627 532.385 454.222C532.847 453.654 533.313 453.086 533.783 452.514C534.72 451.959 535.653 451.405 536.581 450.851C559.18 448.304 581.77 445.763 604.36 443.212C610.592 442.527 616.811 441.837 623.044 441.148C629.552 445.1 636.056 449.044 642.565 452.996C642.882 453.924 643.212 454.853 643.529 455.781C654.682 459.413 665.839 463.05 677 466.682ZM599.481 459.895C598.987 459.729 598.507 459.567 598.014 459.404C597.819 460.824 598.254 461.198 599.481 459.895ZM612.878 456.921C612.561 455.064 612.253 453.212 611.932 451.364C595.814 453.266 579.697 455.164 563.579 457.074C563.928 458.724 564.272 460.373 564.62 462.018C580.711 460.319 596.797 458.62 612.878 456.921ZM630.874 449.976C628.28 449.422 625.673 448.868 623.071 448.323C622.745 449.03 622.406 449.733 622.066 450.441C624.393 451.211 626.714 451.986 629.032 452.757C629.647 451.838 630.267 450.909 630.874 449.976Z" fill="#2A6036"/><path d="M599.481 459.895C598.254 461.198 597.819 460.824 598.014 459.404C598.507 459.562 598.987 459.729 599.481 459.895Z" fill="#7DB22A"/><path d="M630.874 449.976C630.267 450.905 629.647 451.833 629.032 452.757C626.719 451.986 617.427 449.093 615.105 448.323C615.444 447.615 622.745 449.03 623.071 448.323C625.673 448.868 628.28 449.422 630.874 449.976Z" fill="#7DB22A"/><path d="M604.364 443.221C581.77 445.767 559.18 448.309 536.59 450.851C535.58 448.733 534.566 446.614 533.557 444.496C559.506 431.526 585.205 429.53 610.642 438.512L610.14 438.881L608.429 440.179L608.524 440.111C607.098 441.184 605.672 442.252 604.247 443.325L604.36 443.216L604.364 443.221Z" fill="#7DB22A"/><path d="M623.044 441.152C616.816 441.842 610.588 442.531 604.36 443.221C604.36 443.221 604.247 443.329 604.247 443.325C605.672 442.252 607.098 441.184 608.524 440.111L608.429 440.179C608.999 439.746 609.569 439.314 610.14 438.881L610.642 438.512C614.774 439.39 618.907 440.269 623.044 441.152Z" fill="#7DB22A"/><path d="M551.521 467.237C540.292 469.463 529.067 471.685 517.838 473.902C517.838 473.902 517.421 473.983 517.421 473.988C516.005 473.943 514.597 473.902 513.176 473.857V463.433C520.151 460.761 527.112 458.097 534.078 455.429C539.894 459.368 545.701 463.298 551.517 467.232L551.521 467.237Z" fill="#7DB22A"/><path d="M612.878 456.921C596.792 458.62 580.706 460.319 564.625 462.018C564.276 460.369 563.928 458.719 563.579 457.07C579.697 455.168 595.814 453.266 611.932 451.364C612.249 453.217 612.561 455.069 612.878 456.921Z" fill="#7DB22A"/><path d="M541.378 519.45C541.378 521.681 541.501 523.88 541.749 526.043H664.68C664.929 523.88 665.051 521.681 665.051 519.45C665.051 504.466 659.452 490.752 650.183 480.211C649.35 479.26 648.485 478.327 647.58 477.431C646.195 476.038 644.747 474.709 643.226 473.456C642.637 472.965 642.026 472.482 641.415 472.018C630.906 463.942 617.635 459.125 603.215 459.125C601.363 459.125 599.53 459.201 597.72 459.359C585.196 460.436 573.74 465.155 564.489 472.428C563.9 472.888 563.317 473.366 562.746 473.843C561.221 475.132 559.764 476.489 558.379 477.917C557.491 478.823 556.636 479.761 555.812 480.725C546.801 491.198 541.383 504.709 541.383 519.455L541.378 519.45Z" fill="white"/><path opacity="0.24" d="M541.378 519.45C541.378 521.681 541.501 523.88 541.75 526.044H624.818C627.108 520.095 628.367 513.565 628.367 506.706C628.367 497.81 622.51 478.724 622.51 478.724L599.517 478.485C599.517 478.485 607.012 462.983 597.711 459.355C585.187 460.432 573.731 465.15 564.48 472.424C563.891 472.884 563.308 473.361 562.737 473.839C561.212 475.128 559.755 476.484 558.37 477.913C557.482 478.819 556.627 479.756 555.803 480.721C546.792 491.194 541.374 504.705 541.374 519.45H541.378Z" fill="#50B0F0"/><path d="M557.089 479.269C573.641 478.593 591.121 478.228 609.171 478.228C622.804 478.228 636.106 478.436 648.929 478.828C648.485 478.359 648.033 477.89 647.571 477.435C635.043 476.976 621.989 476.728 608.583 476.728C591.116 476.728 574.252 477.142 558.365 477.917C557.931 478.359 557.505 478.814 557.084 479.274L557.089 479.269Z" fill="#0976DA"/><path d="M562.737 473.843C577.601 473.307 593.162 473.019 609.171 473.019C620.79 473.019 632.169 473.172 643.217 473.456C642.628 472.965 642.017 472.482 641.406 472.018C630.779 471.694 619.808 471.518 608.587 471.518C593.343 471.518 578.556 471.834 564.48 472.424C563.891 472.884 563.308 473.361 562.737 473.839V473.843Z" fill="#0976DA"/><path d="M370 539H591.388L582.743 522.848L581.575 520.672L571.767 502.343H566.001C566.001 502.343 564.846 499.572 562.217 495.367C553.943 482.136 531.068 454.704 483.548 454.704C436.028 454.704 409.862 482.136 400.004 495.367C396.872 499.572 395.383 502.343 395.383 502.343H389.612L379.799 520.672L378.636 522.848L369.991 539H370Z" fill="white"/><path opacity="0.24" d="M370 539H501.091C490.853 504.092 444.184 502.136 444.184 502.136L491.871 500.694C491.871 500.694 478.125 465.019 458.31 457.484C426.514 464.79 407.961 484.691 400.013 495.358C396.881 499.563 395.392 502.334 395.392 502.334H389.621L382.556 515.534L380.718 518.964L379.804 520.667L378.64 522.844L369.996 538.995L370 539Z" fill="#A1C3DE"/><path d="M395.392 502.136H566.005C566.005 502.136 564.851 499.364 562.221 495.16H400.013C396.881 499.364 395.392 502.136 395.392 502.136Z" fill="#0976DA"/><path d="M378.645 522.645H582.747L581.575 520.469H379.808L378.645 522.645Z" fill="#FF6839"/></g><g clip-path="url(#clip4_5510_6830)"><path d="M502.131 306.305C507.787 307.421 513.444 308.543 519.1 309.659C524.427 312.116 529.754 314.572 535.07 317.017C544.607 313.338 555.043 309.314 565.473 305.295C570.401 304.673 575.324 304.051 580.252 303.434C580.603 303.168 580.959 302.903 581.31 302.637L581.182 302.701C587.137 303.45 593.091 304.194 605.429 305.747C594.659 301.079 589.747 298.947 584.84 296.816C597.476 284.891 680.669 274.652 696.533 285.758C697.819 287.842 699.1 289.926 700.387 292.01C691.658 292.01 682.934 292.01 674.205 292.01C674.338 293.605 674.471 295.194 674.604 296.789L704.72 292.797C707.032 292.818 709.35 292.834 711.663 292.855C712.79 294.083 713.917 295.306 715.038 296.534C693.035 299.798 671.031 303.057 645.854 306.789C656.263 310.212 663.36 312.551 675.018 316.384C632.25 322.514 594.303 327.958 559.875 332.891C558.945 332.354 562.948 334.656 566.951 336.953C567.414 335.299 567.876 333.646 568.339 331.993C594.521 339.196 620.708 346.4 646.89 353.603C646.715 355.379 646.539 357.149 646.364 358.924H495.183C503.619 372.608 537.733 372.14 550.46 374.012L550.333 374.464C547.515 374.628 544.692 374.799 541.875 374.963L539.19 373.82C538.616 374.214 538.042 374.607 537.468 375.001C523.22 375.001 508.973 374.995 494.731 374.99C477.591 369.966 469.649 372.746 470.898 383.326C469.729 383.873 468.219 384.575 466.709 385.282L466.56 385.176C466.22 385.101 465.907 385.165 465.625 385.362C458.235 385.319 450.851 385.282 443.462 385.239C452.611 379.11 461.755 372.98 470.904 366.851C486.358 361.412 501.817 355.969 518.547 350.084C489.462 347.83 460.383 345.538 431.304 343.157C433.983 341.594 436.662 340.036 439.342 338.473C445.53 336.99 451.712 335.512 457.9 334.029C464.657 333.269 471.409 332.503 478.166 331.743C478.081 330.552 477.99 329.366 477.905 328.176H463.567C466.194 325.459 468.825 322.743 471.451 320.026C471.85 320.053 472.206 319.936 472.509 319.68C475.199 318.851 477.889 318.022 480.579 317.198C487.761 313.556 494.943 309.92 502.126 306.278L502.131 306.305ZM636.997 306.087C623.85 298.426 611.936 297.634 601.262 303.705C609.645 313.083 621.559 313.88 636.997 306.087ZM511.727 330.844C511.743 331.961 511.764 333.082 511.78 334.199C520.482 333.673 529.18 333.152 537.882 332.625C537.882 332.03 537.872 331.44 537.866 330.844H511.727ZM551.284 328.957C551.518 328.441 551.747 327.931 551.981 327.415C550.184 327.038 548.382 326.661 546.585 326.283C546.484 326.698 546.377 327.112 546.276 327.527C547.946 328.006 549.615 328.479 551.29 328.957H551.284Z" fill="#7DB22A"/><path d="M584.84 296.821C589.752 298.953 594.659 301.08 605.429 305.753C593.091 304.2 587.136 303.456 581.182 302.706C582.4 300.745 583.622 298.783 584.84 296.821Z" fill="#1B3833"/><path d="M547.419 418.067C547.94 418.349 548.456 418.269 548.966 417.828C548.451 417.908 547.93 417.988 547.419 418.067ZM627.21 406.207C627.242 406.218 627.274 406.223 627.3 406.228C627.274 406.218 627.242 406.207 627.205 406.202C627.162 406.159 627.119 406.117 627.082 406.074C627.029 406.079 626.981 406.079 626.944 406.079C626.965 406.101 626.987 406.127 627.008 406.154C627.072 406.17 627.141 406.186 627.205 406.207C627.247 406.249 627.284 406.292 627.327 406.329C627.29 406.292 627.252 406.249 627.21 406.207ZM626.62 405.67C626.598 405.93 626.705 406.069 626.944 406.079C626.838 405.941 626.726 405.803 626.62 405.67ZM553.182 417.201C553.262 417.296 553.342 417.397 553.421 417.493L556.335 416.908C556.212 416.813 554.942 416.956 553.182 417.201ZM553.182 417.201C553.262 417.296 553.342 417.397 553.421 417.493L556.335 416.908C556.212 416.813 554.942 416.956 553.182 417.201ZM547.419 418.067C547.94 418.349 548.456 418.269 548.966 417.828C548.451 417.908 547.93 417.988 547.419 418.067ZM491.95 426.664C492.222 426.897 492.493 427.121 492.753 427.339C492.79 427.179 492.833 427.014 492.87 426.855C492.562 426.791 492.259 426.727 491.95 426.664ZM627.21 406.207C627.242 406.218 627.274 406.223 627.3 406.228C627.274 406.218 627.242 406.207 627.205 406.202C627.162 406.159 627.119 406.117 627.082 406.074C627.029 406.079 626.981 406.079 626.944 406.079C626.965 406.101 626.987 406.127 627.008 406.154C627.072 406.17 627.141 406.186 627.205 406.207C627.247 406.249 627.284 406.292 627.327 406.329C627.29 406.292 627.252 406.249 627.21 406.207ZM626.62 405.67C626.598 405.93 626.705 406.069 626.944 406.079C626.838 405.941 626.726 405.803 626.62 405.67ZM657.953 381.965L657.937 381.986H657.985C657.985 381.986 657.964 381.97 657.953 381.965ZM627.21 406.207C627.242 406.218 627.274 406.223 627.3 406.228C627.274 406.218 627.242 406.207 627.205 406.202C627.162 406.159 627.119 406.117 627.082 406.074C627.029 406.079 626.981 406.079 626.944 406.079C626.965 406.101 626.987 406.127 627.008 406.154C627.072 406.17 627.141 406.186 627.205 406.207C627.247 406.249 627.284 406.292 627.327 406.329C627.29 406.292 627.252 406.249 627.21 406.207ZM626.62 405.67C626.598 405.93 626.705 406.069 626.944 406.079C626.838 405.941 626.726 405.803 626.62 405.67ZM547.419 418.067C547.94 418.349 548.456 418.269 548.966 417.828C548.451 417.908 547.93 417.988 547.419 418.067ZM463.248 390.046L463.195 390.28C463.238 390.232 463.286 390.184 463.328 390.136C463.296 390.104 463.275 390.078 463.248 390.046Z" fill="#1B3833"/><path d="M865.114 377.398C864.779 377.334 864.471 377.217 864.184 377.037C837.491 373.905 810.799 370.769 788.348 368.132C798.752 366.027 813.6 363.013 828.448 360.004C828.363 359.318 828.273 358.637 828.188 357.962H747.09C747.015 356.665 746.941 355.368 746.866 354.071C759.295 350.998 771.725 347.92 784.154 344.847C775.76 341.062 767.365 337.282 758.971 333.502C745.819 331.87 702.21 332.827 689.68 323.248C702.556 322.445 715.426 321.642 728.302 320.839C723.884 312.743 719.467 304.646 715.049 296.544C693.045 299.803 671.042 303.067 645.864 306.799C656.273 310.223 663.37 312.562 675.029 316.395C632.26 322.53 594.308 327.968 559.886 332.902C560.577 333.295 563.772 335.134 566.962 336.969C567.424 335.315 567.892 333.657 568.355 332.003C594.537 339.212 620.724 346.415 646.906 353.619C646.731 355.394 646.555 357.165 646.38 358.94H495.183C503.619 372.624 537.733 372.162 550.466 374.028L550.338 374.479C547.52 374.644 544.703 374.814 541.88 374.979C540.982 374.602 540.083 374.219 539.19 373.836C538.616 374.235 538.047 374.628 537.473 375.022C523.226 375.016 508.978 375.016 494.731 375.011H486.555C482.791 383.262 476.177 386.696 466.715 385.303C466.715 385.303 466.566 385.197 466.56 385.197C466.608 385.633 466.651 386.063 466.693 386.499C465.572 387.711 464.45 388.924 463.328 390.136C463.69 390.572 464.062 391.018 464.429 391.459C473.487 394.351 482.546 397.243 499.404 402.629C471.26 402.629 432.872 396.015 406.381 406.504C402.447 408.684 398.407 410.704 394.659 413.171C393.793 413.745 393.931 415.861 393.612 417.264C413.803 419.327 433.999 421.384 454.195 423.441C454.626 422.708 455.051 421.969 455.482 421.23C460.42 421.56 465.359 421.894 470.298 422.224C477.512 423.702 484.736 425.185 491.95 426.663C488.718 423.952 484.699 420.576 479.123 415.887C489.447 419.396 491.86 420.215 494.274 421.039C494.678 421.044 495.076 421.054 495.48 421.06C509.005 422.399 522.529 423.739 536.059 425.079C536.325 424.802 536.596 424.521 536.867 424.239C535.958 423.101 535.054 421.969 532.991 419.38C536.356 419.848 538.159 420.103 539.966 420.353C540.365 419.837 540.769 419.327 541.173 418.816C541.359 418.965 544.224 418.551 547.419 418.067C547.074 417.881 546.718 417.53 546.367 417.014C547.244 415.175 548.382 415.116 549.774 416.833C549.509 417.264 549.238 417.599 548.966 417.828C550.46 417.599 551.943 417.376 553.182 417.2C553.161 417.174 553.134 417.142 553.113 417.115C555.92 415.717 558.732 414.324 563.246 412.075C558.668 408.365 554.022 404.59 546.984 398.881C556.345 402.023 562.523 404.091 568.7 406.164C572.852 404.819 580.513 408.221 584.133 407.716C584.133 407.663 584.128 407.605 584.128 407.551C585.909 406.77 587.636 406.233 589.322 405.957C590.773 405.281 612.271 403.123 613.723 402.448C616.588 409.662 637.172 400.88 642.287 406.063V405.951C642.829 405.957 643.371 405.957 643.908 405.962V406.068C654.609 406.02 676.842 405.122 680.792 405.515C682.945 406.371 716.537 403.697 718.786 404.542C723.64 404.893 729.424 406.69 734.357 407.153C734.82 407.578 735.282 408.009 735.75 408.434C739.53 407.355 743.315 406.276 747.1 405.196C749.461 405.919 751.826 406.648 754.187 407.371C756.776 406.27 759.359 405.17 761.948 404.064C762.368 403.979 762.794 403.889 763.213 403.798C766.701 403.798 770.183 403.803 773.67 403.803C773.979 403.899 774.276 403.867 774.558 403.718C783.378 402.203 792.192 400.694 801.011 399.178C801.543 398.833 802.075 398.482 802.612 398.131C803.515 397.477 804.424 396.823 805.334 396.169C806.168 396.233 807.008 396.297 807.848 396.361C808.226 396.552 808.603 396.749 808.986 396.946C809.512 396.962 810.038 396.972 810.565 396.988C810.841 397.025 811.118 397.025 811.394 396.993C811.782 396.552 812.175 396.111 812.564 395.67C813.244 395.845 813.924 396.021 814.467 396.159C821.59 394.692 824.381 394.117 827.178 393.543C833.371 390.141 839.564 386.744 847.177 382.571H863.503C864.912 381.741 866.321 380.917 867.9 379.987C866.969 379.126 866.039 378.265 865.109 377.398H865.114ZM548.499 403.203C548.137 404.059 547.776 404.915 547.419 405.77C544.969 404.287 542.518 402.809 540.072 401.326C538.69 401.252 537.313 401.177 535.931 401.103C535.974 400.603 536.011 400.103 536.053 399.598C537.383 399.816 538.706 400.04 540.035 400.258C542.853 401.241 545.676 402.219 548.499 403.203ZM569.434 374.963C563.799 374.634 558.169 374.304 552.534 373.98C561.167 372.81 569.806 371.641 578.445 370.471C578.556 371.513 578.668 372.56 578.78 373.602C575.664 374.054 572.549 374.511 569.434 374.963ZM597.386 385.596L597.455 385.521C597.455 385.521 597.471 385.569 597.477 385.596H597.386ZM621.07 342.402C621.054 342.008 621.038 341.615 621.017 341.222C631.936 340.615 642.855 340.015 653.78 339.409C653.828 340.408 653.876 341.402 653.924 342.402H621.07ZM657.937 381.986L657.953 381.965C657.953 381.965 657.975 381.975 657.985 381.986H657.937ZM658.017 382.002C658.017 382.002 658.012 381.997 658.006 381.997C658.076 382.007 658.145 382.018 658.208 382.028C658.15 382.028 658.086 382.013 658.017 382.002ZM656.624 355.729C656.364 354.693 656.103 353.661 655.843 352.625C666.916 348.701 677.99 344.778 689.064 340.855C689.611 342.699 690.159 344.549 690.706 346.394C679.346 349.504 667.985 352.614 656.624 355.729ZM744.251 357.037C743.219 356.846 742.193 356.66 741.167 356.468C741.21 356.202 741.252 355.931 741.295 355.666C742.332 355.788 743.368 355.905 744.405 356.027C744.352 356.362 744.299 356.697 744.251 357.037Z" fill="#1B3833"/><path d="M469.075 361.29C454.424 356.298 439.778 351.301 423.973 345.911C427.056 344.762 429.182 343.97 431.304 343.178C460.383 345.555 489.457 347.846 518.547 350.105C501.817 355.995 486.363 361.434 470.904 366.872C470.292 365.012 469.686 363.151 469.075 361.29Z" fill="#1B3833"/><path d="M448.799 391.252C447.023 389.259 445.243 387.26 443.467 385.266C450.851 385.309 458.241 385.346 465.625 385.389C465.981 385.761 466.337 386.133 466.693 386.5C465.524 387.76 464.359 389.019 463.195 390.274C458.4 390.598 453.6 390.928 448.799 391.252Z" fill="#1B3833"/><path d="M494.731 375.011C490.462 375.011 486.193 375.011 486.555 375.011C482.791 383.262 476.177 386.691 466.715 385.304C468.224 384.596 469.734 383.895 470.904 383.347C469.654 372.768 477.597 369.988 494.736 375.011H494.731ZM482.583 381.008C481.759 379.769 480.882 379.663 479.952 380.694C480.627 381.949 481.51 382.05 482.583 381.008Z" fill="#2A6036"/><path d="M636.997 306.087C621.559 313.88 609.645 313.088 601.262 303.705C611.937 297.634 623.85 298.426 636.997 306.087Z" fill="#1B3833"/><path d="M457.906 334.055C460.149 332.801 462.393 331.546 464.631 330.297C464.508 330.047 464.041 329.122 463.573 328.202C468.352 328.202 473.131 328.202 477.911 328.202C477.996 329.393 478.086 330.578 478.171 331.769C471.414 332.529 464.657 333.295 457.906 334.055Z" fill="#1B3833"/><path d="M511.727 330.845H537.866C537.866 331.44 537.877 332.03 537.882 332.626C529.18 333.152 520.482 333.673 511.78 334.199C511.764 333.083 511.743 331.961 511.727 330.845Z" fill="#1B3833"/><path d="M551.284 328.958C549.615 328.479 547.941 328.006 546.271 327.527C546.372 327.113 546.479 326.698 546.58 326.284C548.376 326.661 550.179 327.038 551.975 327.416C551.742 327.932 551.513 328.442 551.279 328.958H551.284Z" fill="#2A6036"/><path d="M448.799 391.252C453.6 390.928 458.395 390.598 463.195 390.274L463.249 390.04C463.642 390.513 464.035 390.987 464.429 391.454C473.487 394.346 482.546 397.238 499.404 402.624C471.26 402.624 432.872 396.01 406.381 406.504C417.46 401.396 428.449 396.074 439.693 391.348C442.287 390.258 445.742 391.226 448.799 391.252Z" fill="#7DB22A"/><path d="M552.534 373.98C561.172 372.81 569.806 371.641 578.445 370.471C578.556 371.513 578.668 372.56 578.779 373.602C575.664 374.054 572.554 374.506 569.439 374.958C563.804 374.628 558.169 374.304 552.539 373.975L552.534 373.98Z" fill="#7DB22A"/><path d="M452.451 422.421C452.451 422.421 466.778 428.237 492.413 434.856C518.048 441.475 531.163 439.699 566.6 440.406C572.863 442.091 577.089 446.52 603.42 450.331C629.751 454.143 672.275 528.011 638.166 604.001L688.165 602.879C688.165 602.879 667.847 535.39 670.212 480.102C670.919 464.983 705.772 423.043 732.114 421.268C758.455 419.492 777.291 416.271 798.71 399.573H797.295C797.295 399.573 773.904 418.525 740.412 417.727C740.412 417.727 753.262 408.158 754.766 404.793L749.45 403.82C749.45 403.82 743.336 416.754 723.31 421.098L735.803 405.681L728.536 410.997L729.158 402.05C729.158 402.05 731.907 410.997 694.959 438.731C694.959 438.731 693.806 417.642 706.745 404.267L702.226 404.533L684.151 439.795L698.505 401.874L682.732 433.947L690.706 400.721H686.809C686.809 400.721 678.835 455.743 664.747 456.36C664.747 456.36 663.152 456.269 663.774 454.058C664.396 451.846 677.421 404.261 677.421 404.261L675.119 404.171C675.119 404.171 660.409 459.193 655.449 457.599C650.489 456.004 646.768 413.979 648.182 406.329L648.358 403.044L643.929 403.73C643.929 403.73 644.195 445.818 648.714 456.094C653.232 466.37 629.304 419.774 637.013 404.352L624.366 405.282C624.366 405.282 625.647 422.953 626.46 427.918C626.46 427.918 619.209 406.122 619.656 401.959L616.025 403.044L621.25 429.338L606.455 399.578L603.175 401.959L622.138 448.742C622.138 448.742 583.33 434.479 582.533 426.238C581.735 417.998 582.708 403.554 582.708 403.554L580.491 404.442L579.784 423.58L568.354 403.049H566.318C566.318 403.049 583.596 434.659 582.091 435.808C580.587 436.956 564.814 434.479 563.66 432.884C562.507 431.289 548.515 411.709 548.515 411.709L548.206 414.633C548.206 414.633 560.114 432.442 557.632 434.303C555.149 436.164 512.976 439.178 505.358 433.596C497.74 428.014 490.297 414.633 490.297 414.633L499.42 432.267L476.741 413.926L491.966 431.911L453.775 423.405L452.462 422.432L452.451 422.421Z" fill="#B15341"/></g><g clip-path="url(#clip5_5510_6830)"><path d="M227.933 346L183.975 349.547V578.612H231.502V346H227.933Z" fill="white"/><path d="M251.424 346H227.933V438.975L230.636 440.506V511.582L226.77 513.771V583H255.497V414.171L259.025 412.172V346H251.424Z" fill="url(#paint24_linear_5510_6830)"/></g><g clip-path="url(#clip6_5510_6830)"><path d="M621.229 535.014V705.026L396.247 682.915L398.232 680.88L277.89 669.701L274.281 655.721L299.901 651.913V645.304L7.08136 613.284L0.586266 601.706L11.5914 600.008L11.8268 599.516L14.1367 594.719L14.299 594.376L66.7997 583.552L212.038 573.895V560.429L252.633 550.772C252.633 550.772 258.653 550.154 267.547 549.291H267.563C292.407 546.872 339.663 542.527 340.856 544.357C342.48 546.838 621.229 535.014 621.229 535.014Z" fill="#EFF8FD"/><path d="M621.229 629.351V635.074L560.878 641.747L454.703 649.5L444.688 652.422L374.416 652.039V648.357L357.094 651.656L307.93 653.183L308.279 646.499L366.703 644.417L377.663 641.936L377.176 645.201L453.932 643.76L455.332 642.891L621.229 629.351Z" fill="#1B3833"/><path d="M306.94 586.605L306.757 589.144L239.464 593.466L238.197 596.005L169.28 596.257V594.227L12.854 601.706L11.827 599.516L175.775 589.144L172.434 592.191H220.1L234.592 591.683L237.747 589.144L306.94 586.605Z" fill="#1B3833"/><path d="M621.229 535.014V629.351L455.332 642.891L453.932 643.76L377.176 645.201L377.663 641.936L366.703 644.417L308.279 646.499L308.381 644.543L399.584 624.594L508.649 608.967L459.392 608.201L462.01 604.136L446.674 605.537L427.822 607.189L428.54 599.819L341.039 604.645L262.197 606.423C262.197 606.423 262.197 603.901 263.11 601.969C263.613 600.894 264.401 600.002 265.623 599.819C269.049 599.31 306.757 589.144 306.757 589.144L306.94 586.605L237.747 589.144L234.592 591.683L220.1 592.191H172.434L175.775 589.144L11.827 599.516L14.1368 594.719C46.2997 591.505 246.036 571.545 246.41 571.545C246.815 571.545 250.558 567.799 250.558 567.799L355.064 559.223H219.885L267.547 549.291H267.563C292.407 546.872 339.663 542.527 340.856 544.357C342.48 546.838 621.229 535.014 621.229 535.014Z" fill="#2A6036"/><mask id="mask0_5510_6830" style="mask-type:luminance" maskUnits="userSpaceOnUse" x="11" y="535" width="611" height="112"><path d="M621.229 535.014V629.351L455.332 642.891L453.932 643.76L377.176 645.201L377.663 641.936L366.703 644.417L308.279 646.499L308.381 644.543L399.584 624.594L508.649 608.967L459.392 608.201L462.01 604.136L446.674 605.537L427.822 607.189L428.54 599.819L341.039 604.645L262.197 606.423C262.197 606.423 262.197 603.901 263.11 601.969C263.613 600.894 264.401 600.002 265.623 599.819C269.049 599.31 306.757 589.144 306.757 589.144L306.94 586.605L237.747 589.144L234.592 591.683L220.1 592.191H172.434L175.775 589.144L11.827 599.516L14.1368 594.719C46.2997 591.505 246.036 571.545 246.41 571.545C246.815 571.545 250.558 567.799 250.558 567.799L355.064 559.223H219.885L267.547 549.291H267.563C292.407 546.872 339.663 542.527 340.856 544.357C342.48 546.838 621.229 535.014 621.229 535.014Z" fill="white"/></mask><g mask="url(#mask0_5510_6830)"><path d="M681.309 501.645H667.154C669.439 505.779 671.014 508.626 672.589 511.474C665.948 516.317 659.908 522.835 654.468 531.029C653.291 531.126 652.109 531.217 650.932 531.314L650.863 531.28C650.169 530.794 649.471 530.314 648.777 529.828C649.353 527.604 649.929 525.379 650.652 522.595C646.507 519.267 642.342 515.922 638.084 512.509C638.92 511.394 639.712 510.336 641.011 508.604H630.347C630.943 510.307 632.247 514.024 633.554 517.741C629.681 518.976 625.808 520.211 621.936 521.446V513.961C619.792 516.22 618.136 517.969 615.485 520.76C618.469 521.051 620.218 521.223 621.964 521.394C618.574 526.323 615.181 531.246 611.791 536.175C610.362 536.563 608.933 536.952 607.504 537.335C607.253 536.975 607.005 536.609 606.753 536.249C606.875 535.448 607.001 534.648 607.123 533.847V518.775H586.294C587.763 520.942 588.839 522.521 589.862 524.03C586.395 526.757 583.286 529.199 580.103 531.703C580.05 531.314 579.835 529.685 579.616 528.05L577.822 528.553C578.203 531.109 578.589 533.664 579.295 538.393C576.579 539.468 573.096 540.846 569.613 542.224C569.415 538.942 569.212 535.66 569.013 532.378C460.999 548.359 352.986 564.34 244.972 580.327C245.066 582.386 245.163 584.438 245.257 586.497L318.927 574.455L318.996 576.067C284.109 584.615 249.219 593.164 214.332 601.712C209.704 603.255 205.08 604.805 200.453 606.343C199.352 606.12 198.252 605.903 197.152 605.685C197.12 605.359 197.108 605.028 197.12 604.702C200.513 602.689 203.907 600.682 207.301 598.67C209.205 597.818 211.109 596.966 219.268 593.312H207.853C192.297 592.043 176.741 590.768 161.19 589.498C162.931 589.361 164.669 589.23 166.41 589.092C166.41 588.841 166.41 588.589 166.406 588.343H147.842C147.481 588.246 147.12 588.143 146.762 588.04C142.541 586.931 138.319 585.828 133.651 584.604C134.527 583.472 135.335 582.437 136.139 581.402L137.641 579.098C146.819 577.491 155.998 575.879 165.176 574.272C166.365 573.952 167.555 573.637 168.748 573.317C180.732 570.664 192.711 568.011 204.695 565.358C224.639 565.798 244.579 566.433 264.523 566.536C268.878 566.559 273.234 564.689 277.594 563.694C279.226 562.808 280.858 561.927 282.494 561.041L282.798 563.174L304.321 554.454C304.114 552.728 303.903 550.995 303.696 549.268C297.891 550.137 292.082 551.006 287.479 551.698C291.591 548.319 296.714 544.105 301.841 539.891C302.426 538.999 303.01 538.101 303.591 537.21C304.232 536.483 304.869 535.757 305.511 535.031C308.088 534.11 310.662 533.19 316.727 531.023C311.949 530.434 310.723 530.285 309.497 530.137C318.087 524.693 326.677 519.25 335.266 513.807C335.506 513.732 335.749 513.664 335.989 513.589C336.472 513.561 336.955 513.532 337.438 513.498C338.624 513.326 339.809 513.149 340.99 512.978C345.366 512.297 349.746 511.617 354.122 510.936C355.085 510.45 356.047 509.964 357.009 509.478C358.884 509.678 360.756 509.879 362.631 510.079C363.143 509.804 363.658 509.536 364.17 509.261C364.864 509.598 365.558 509.942 366.248 510.279C366.699 510.124 367.149 509.976 367.596 509.821C368.16 509.873 368.72 509.919 369.284 509.97L369.601 510.09L369.926 510.079C371.127 509.93 372.333 509.787 373.535 509.638C374.107 509.759 374.679 509.879 375.252 510.004C378.552 510.004 381.852 510.016 385.157 510.022C385.709 510.102 386.265 510.182 386.817 510.262C389.33 510.765 391.843 511.268 393.292 511.56C387.946 505.201 387.402 499.827 391.656 495.43C395.456 495.138 399.255 494.847 403.059 494.555C400.518 497.328 397.977 500.101 395.659 502.628H417.571C424.7 502.56 431.828 502.491 438.961 502.423C439.371 502.457 439.781 502.491 440.191 502.531C440.71 502.548 441.234 502.566 441.753 502.588C442.131 502.566 442.509 502.537 442.886 502.514C443.272 502.577 443.661 502.646 444.047 502.709C448.094 503.149 452.142 503.589 456.185 504.029C456.984 504.104 457.788 504.178 458.588 504.258C465.798 504.635 473.007 505.019 480.213 505.396C486.083 507.391 491.952 509.387 497.826 511.382C514.109 510.124 530.395 508.872 546.678 507.614C557.309 505.79 567.941 503.966 578.573 502.137C583.444 501.439 588.319 500.736 593.191 500.038C595.123 499.375 597.055 498.706 598.988 498.043C599.158 497.591 599.324 497.139 599.495 496.688C600.209 497.683 600.924 498.672 601.634 499.667C603.591 499.209 605.548 498.752 607.5 498.3C611.868 496.911 616.236 495.516 620.604 494.126C620.835 492.96 621.063 491.788 621.294 490.621C625.816 489.558 630.335 488.488 634.857 487.425C647.92 486.847 660.979 486.27 674.042 485.692C675.524 485.561 677.006 485.435 678.488 485.304C679.425 485.395 680.367 485.492 681.305 485.584V501.651L681.309 501.645ZM352.677 542.378C352.56 542.178 352.446 541.984 352.328 541.784C352.426 542.012 352.527 542.235 352.625 542.464H317.137C319.26 548.576 319.95 550.56 320.291 551.538C315.915 555.443 311.746 559.171 307.573 562.894C307.922 564.706 308.267 566.519 308.616 568.326C317.819 565.387 327.022 562.448 336.224 559.509C335.969 557.502 335.717 555.501 335.461 553.494C345.204 550.435 354.942 547.376 370.734 542.418C362.294 541.612 359.996 541.395 357.703 541.178L357.727 541.218C356.043 541.601 354.362 541.99 352.677 542.373V542.378ZM422.82 517.426C421.164 519.25 418.115 522.618 412.757 528.524C426.218 526.048 437.828 523.916 449.438 521.777C449.418 520.325 449.393 518.878 449.373 517.426H422.82ZM350.022 531.543C361.766 529.611 369.004 528.421 376.242 527.226C356.773 516.488 362.176 515.013 350.022 531.543ZM400.083 513.538C400.059 514.967 400.035 516.397 400.006 517.821H414.425C414.429 517.009 414.438 516.197 414.442 515.385C409.656 514.767 404.869 514.15 400.083 513.532V513.538ZM335.957 531.029C335.993 529.353 336.03 527.678 336.066 526.003C332.165 525.62 328.26 525.237 324.359 524.853C324.245 526.163 324.135 527.472 324.022 528.782C328 529.531 331.978 530.28 335.957 531.034V531.029ZM230.643 588.486C230.85 589.55 231.061 590.613 231.268 591.677C234.978 589.63 238.688 587.583 242.399 585.536C240.661 577.565 236.74 578.549 230.643 588.486ZM366.552 541.349L366.723 543.556C371.671 542.527 376.62 541.498 381.568 540.469C381.511 539.72 381.455 538.971 381.398 538.222C376.449 539.262 371.501 540.309 366.552 541.349ZM394.494 525.7C394.473 524.407 394.453 523.115 394.433 521.817C389.59 518.981 387.41 520.279 387.889 525.7H394.494ZM312.753 551.515C312.481 550.875 312.209 550.235 311.937 549.588C310.459 551.041 308.982 552.493 307.508 553.945C307.768 554.591 308.028 555.238 308.283 555.884C309.773 554.426 311.263 552.973 312.753 551.515ZM408.243 524.722C408.251 523.95 408.259 523.178 408.267 522.412C406.733 522.549 405.198 522.692 403.664 522.829C403.688 523.464 403.713 524.093 403.737 524.728H408.243V524.722ZM379.384 523.247C379.453 524.036 379.526 524.819 379.595 525.608C380.874 525.208 382.153 524.802 383.428 524.402C383.367 523.756 383.302 523.115 383.241 522.469C381.954 522.726 380.671 522.989 379.384 523.247ZM400.899 525.254C400.855 524.482 400.81 523.716 400.765 522.944C399.669 523.127 398.573 523.31 397.477 523.493C397.502 524.082 397.522 524.67 397.546 525.254H400.903H400.899ZM321.83 529.496C321.781 528.627 321.728 527.752 321.679 526.883L318.874 527.901C318.943 528.581 319.012 529.256 319.081 529.937C319.999 529.788 320.912 529.645 321.83 529.496ZM307.427 558.903L307.589 557.873C307.143 557.702 306.696 557.536 300.514 555.175C306.554 558.434 306.988 558.668 307.427 558.903Z" fill="#7DB22A"/><path d="M629.673 581.167C602.064 585.627 393.324 621.1 388.136 597.119C436.021 593.672 483.902 590.224 531.787 586.77C564.417 584.9 597.043 583.031 629.673 581.167Z" fill="#7DB22A"/><path d="M508.649 552.665C465.923 561.03 137.016 627.522 213.065 582.574C272.633 576.107 332.201 569.641 391.778 563.174C430.74 559.669 469.694 556.17 508.653 552.665H508.649Z" fill="#7DB22A"/><path d="M630.838 608.195C588.112 616.56 259.205 683.052 335.254 638.104C394.822 631.638 454.391 625.171 513.967 618.704C552.929 615.199 591.884 611.7 630.842 608.195H630.838Z" fill="#7DB22A"/></g><path d="M560.878 641.747L621.229 635.075V664.618H510.001L508.828 663.858V656.614L560.878 641.747Z" fill="#2A6036"/><path d="M508.649 608.968H264.405L257.638 607.441L263.11 601.969C262.197 603.902 262.197 606.423 262.197 606.423L341.039 604.645L428.54 599.819L427.821 607.19L446.674 605.537L462.01 604.136L459.392 608.202L508.649 608.968Z" fill="#1B3833"/><path d="M0.586266 601.706L22.4626 608.967L178.479 621.569L333.379 639.077L291.964 641.267L7.08136 613.284L0.586266 601.706Z" fill="#65A8CB"/></g><g clip-path="url(#clip7_5510_6830)"><path d="M415.694 558.196C413.163 559.822 413.8 565.161 416.569 565.505C416.629 565.512 416.689 565.518 416.748 565.525C426.056 566.695 438.692 568.217 442.503 568.334H442.521C442.778 568.347 442.993 568.347 443.168 568.334H443.195C443.397 568.328 443.53 568.308 443.594 568.282C444.873 567.677 614.705 568.197 638.295 568.275C639.79 568.275 641 566.559 641 564.439V460.312C641 458.036 639.611 456.261 638.015 456.495L630.652 457.588C630.409 457.627 630.166 457.614 629.927 457.555L628.556 457.23C627.557 456.996 626.736 455.988 626.424 454.622L626.204 453.66C625.847 452.073 624.806 451 623.632 451H614.242C613.618 451 613.008 451.306 612.527 451.871L607.566 457.646L601.784 464.871C601.633 465.06 601.468 465.222 601.289 465.359L598.396 467.589C598.13 467.797 597.836 467.94 597.534 468.005L587.726 470.262C587.052 470.418 586.442 470.925 586.025 471.693L585.31 472.993C584.828 473.871 584.099 474.411 583.315 474.469C578.602 474.827 561.532 477.129 555.167 491.943C554.98 492.379 554.741 492.775 554.448 493.075C548.432 499.226 545.534 495.682 542.15 497.38C538.684 499.116 529.922 509.521 526.763 517.324C523.604 525.128 524.113 508.363 514.025 506.048C509.009 504.481 505.772 511.159 503.837 511.055C501.903 510.945 498.973 505.528 490.339 506.178C482.132 506.796 477.106 508.649 476.882 517.864C476.859 518.892 476.519 519.847 475.978 520.537C472.824 524.556 462.512 537.698 462.319 537.789C462.09 537.9 457.349 535.331 451.389 533.816C445.428 532.294 428.77 541.398 428.161 541.834C427.546 542.27 425.254 550.074 424.795 551.589C424.57 552.324 420.164 555.315 415.694 558.189V558.196Z" fill="#55A549"/><path d="M414.607 568.347H442.503L443.195 568.34L641 568.288V483.697L633.114 482.377L628.373 484.757C628.373 484.757 615.842 478.904 605.603 482.377C595.36 485.843 584.663 479.776 584.663 479.776C584.663 479.776 567.699 479.126 563.113 486.929C558.528 494.733 549.817 503.616 549.817 503.616C549.817 503.616 545.539 504.052 544.924 504.702C544.315 505.352 541.871 509.67 541.871 509.67L536.479 510.698C533.994 511.172 531.628 512.486 529.578 514.528C527.721 516.375 526.171 518.774 525.034 521.551L523.122 526.233C523.122 526.233 508.753 520.745 508.349 520.745C508.29 520.745 508.157 520.764 507.969 520.79C505.318 521.213 502.765 522.462 500.477 524.413L483.186 539.161H469.633L464.74 543.57L445.18 544.65L425.157 558.306C425.157 558.306 419.655 561.993 419.045 562.644C418.752 562.949 417.739 564.25 416.753 565.525C415.666 566.949 414.612 568.34 414.612 568.34L414.607 568.347Z" fill="#1B3833"/><path d="M641 544.949C641 544.058 640.436 543.382 639.817 543.532C638.139 543.941 635.241 544.676 635.026 544.982C634.87 545.203 634.659 545.886 634.49 546.49C634.32 547.095 633.857 547.498 633.38 547.388L625.113 545.476C624.93 545.437 624.746 545.463 624.572 545.56C623.857 545.97 621.903 547.108 621.573 547.583C621.303 547.967 619.712 548.805 618.685 549.319C618.19 549.566 617.644 549.235 617.428 548.552C616.603 545.925 614.682 539.896 614.444 539.779C614.182 539.656 610.606 539.116 609.542 538.953C609.349 538.927 609.152 538.973 608.978 539.103L602.94 543.454C602.862 543.506 602.784 543.551 602.697 543.577L600.505 544.26C600.354 544.305 600.198 544.305 600.046 544.253L597.075 543.232C596.837 543.148 596.589 543.193 596.374 543.349L593.352 545.547C593.091 545.736 592.898 546.081 592.829 546.49L592.311 549.521C592.201 550.165 591.793 550.62 591.326 550.62H586.979C586.745 550.62 586.52 550.73 586.342 550.938L581.821 556.141C581.468 556.551 580.963 556.57 580.592 556.193L575.181 550.691C575.131 550.639 575.085 550.587 575.044 550.522L572.068 546.165C571.926 545.957 571.83 545.691 571.798 545.398L571.321 541.334C571.224 540.495 570.638 539.961 570.06 540.182L568.689 540.703C568.556 540.755 568.418 540.768 568.285 540.735L559.473 538.966C559.244 538.921 559.01 538.986 558.808 539.155L556.286 541.301C556.14 541.425 555.97 541.496 555.796 541.503L550.335 541.75C549.968 541.769 549.624 541.503 549.432 541.054L548.813 539.584C548.629 539.149 548.299 538.888 547.941 538.888H543.691C543.393 538.888 543.109 538.706 542.916 538.381C542.173 537.133 540.316 534.011 540.225 534.011C540.11 534.011 536.213 534.226 535.983 534.226C535.773 534.226 533.503 539.344 533.132 540.182C533.095 540.261 533.067 540.339 533.044 540.43L531.421 546.445C531.288 546.933 530.981 547.284 530.614 547.355L526.016 548.266C525.837 548.298 525.658 548.266 525.488 548.175L520.509 545.274C520.174 545.079 519.794 545.151 519.509 545.463L516.584 548.636C516.199 549.053 515.662 549.027 515.3 548.571L511.329 543.616C511.21 543.467 511.068 543.362 510.917 543.304L508.276 542.328C507.826 542.159 507.515 541.581 507.519 540.924C507.538 538.375 507.185 532.229 503.393 530.695C498.578 528.744 497.469 526.793 497.239 526.416C497.01 526.038 490.857 524.088 490.247 523.925C489.637 523.762 490.133 517.799 487.23 517.097C484.328 516.394 479.995 519.555 478.01 519.659C476.354 519.75 470.229 520.179 468.22 520.316C467.826 520.342 467.482 520.693 467.336 521.207L464.314 531.735C464.163 532.262 463.805 532.613 463.402 532.632L450.517 533.088C450.357 533.088 450.196 533.153 450.054 533.263L442.961 538.784C442.626 539.044 442.214 539.018 441.897 538.706C440.114 536.937 433.745 531.202 425.652 530.552C425.492 530.539 425.336 530.473 425.199 530.356L421.884 527.573C421.737 527.45 421.572 527.385 421.402 527.372L415.781 527.085C415.487 527.072 415.203 527.241 415.001 527.547L408.986 536.768C408.926 536.859 408.876 536.957 408.834 537.068L408.225 538.687C407.995 539.298 407.486 539.591 407.019 539.376L405.611 538.732C405.363 538.622 405.157 538.375 405.033 538.049C404.286 536.092 401.59 529.108 401.329 529.017C401.053 528.919 395.528 528.971 394.451 528.978C394.332 528.978 394.213 529.01 394.098 529.075L390.489 531.026C390.43 531.059 390.366 531.085 390.306 531.098L387.917 531.696C387.839 531.716 387.766 531.748 387.693 531.787L378.784 537.191C378.683 537.25 378.577 537.289 378.467 537.302L373.878 537.828C373.612 537.861 373.364 538.036 373.19 538.329L368.261 546.549C368.238 546.588 368.22 546.62 368.201 546.666L358.398 566.78C358.357 566.864 358.307 566.949 358.252 567.02C357.573 567.905 358.018 569.511 358.939 569.511H639.987C640.546 569.511 641 568.867 641 568.074V544.923V544.949Z" fill="#7DB22A"/><path d="M548.9 569.531C549.23 569.531 556.034 566.929 556.231 566.552C557.552 564.068 562.669 555.627 555.241 550.815C546.988 545.47 543.219 544.676 542.201 543.265C541.183 541.854 534.865 542.251 533.439 543.265C532.325 544.058 531.586 546.055 531.321 546.887C531.238 547.141 531.114 547.349 530.949 547.505L527.533 550.802C527.332 550.997 527.089 551.088 526.845 551.062L523.989 550.743C523.599 550.698 523.223 550.958 523.008 551.426C521.921 553.8 518.565 560.953 517.542 561.077C516.52 561.2 514.177 556.473 513.535 555.114C513.42 554.873 513.264 554.691 513.076 554.574L509.867 552.577C509.688 552.467 509.537 552.291 509.422 552.064L506.919 547.043C506.74 546.686 506.465 546.458 506.158 546.412L503.439 545.996C503.09 545.944 502.783 545.652 502.613 545.216C501.751 543.011 498.601 536.118 491.939 532.977C491.65 532.841 491.412 532.548 491.288 532.158C490.976 531.137 490.215 529.166 488.918 528.965C487.744 528.783 486.157 529.284 485.236 529.628C484.819 529.784 484.378 529.576 484.112 529.088C483.356 527.69 481.261 525.057 476.18 525.057C469.266 525.057 467.125 532.698 467.203 534.648C467.258 536.086 467.359 541.073 467.404 543.61C467.418 544.442 466.96 545.131 466.373 545.164L458.514 545.561C458.248 545.574 457.991 545.73 457.803 545.996L452.645 553.163C452.315 553.624 451.815 553.728 451.402 553.423L439.004 544.299C438.78 544.136 438.605 543.857 438.509 543.525C438.074 542.055 436.496 537.789 432.48 536.008C428.862 534.408 425.804 533.673 424.456 533.4C424.011 533.309 423.653 532.828 423.562 532.203C423.447 531.403 422.906 530.877 422.338 531.013C419.399 531.716 410.994 534.609 408.688 545.014C408.587 545.463 408.362 545.827 408.055 546.003C406.982 546.608 404.382 548.506 403.034 553.189C402.741 554.203 401.81 554.444 401.274 553.657C399.499 551.049 396.583 544.663 393.607 542.582C389.582 539.766 381.228 536.443 377.968 549.3C374.708 562.156 370.292 553.059 365.459 557.643C362.53 560.426 358.866 564.205 356.436 566.754C355.602 567.625 356.046 569.505 357.083 569.492L548.9 569.531Z" fill="#1B3833"/><path d="M687.763 559.603L680.697 557.353L678.877 556.488C678.877 556.488 675.452 550.148 674.943 549.803C674.434 549.458 668.313 549.803 668.313 549.803L667.295 552.456L666.204 550.538H662.705L660.518 552.229L655.053 552.001L652.21 557.359L650.926 554.635H648.496C648.496 554.635 647.405 545.55 641.793 546.239C636.181 546.929 635.965 551.656 635.965 551.656L633.705 550.544L631.009 551.195L630.646 555.571L627.001 550.037L621.971 550.538L621.536 554.992L616.506 552.339L613.663 556.143L610.747 558.322L609.436 558.907C609.436 558.907 604.19 561.281 603.97 561.248C603.75 561.216 601.857 562.828 601.857 562.828L694.104 564.175L690.752 562.022L689.368 559.948L687.763 559.603Z" fill="#06344F"/><circle cx="486" cy="545" r="4" fill="#F88E5C"/><circle cx="569" cy="513" r="4" fill="#FEC200"/><circle cx="540" cy="513" r="2" fill="#FEC200"/><circle cx="597" cy="515" r="2" fill="#F88E5C"/></g><defs><radialGradient id="paint0_radial_5510_6830" cx="0" cy="0" r="1" gradientUnits="userSpaceOnUse" gradientTransform="translate(460 167) rotate(90) scale(114)"><stop offset="0.785" stop-color="#97D8FF"/><stop offset="1" stop-color="white"/></radialGradient><linearGradient id="paint1_linear_5510_6830" x1="381.942" y1="195.581" x2="381.942" y2="492.071" gradientUnits="userSpaceOnUse"><stop stop-color="#BEE0FF"/><stop offset="1" stop-color="white"/></linearGradient><linearGradient id="paint2_linear_5510_6830" x1="154.931" y1="243.465" x2="154.931" y2="495.814" gradientUnits="userSpaceOnUse"><stop stop-color="#BEE0FF"/><stop offset="1" stop-color="white"/></linearGradient><linearGradient id="paint3_linear_5510_6830" x1="493.732" y1="160.894" x2="583.168" y2="160.894" gradientUnits="userSpaceOnUse"><stop stop-color="#0059AA"/><stop offset="1" stop-color="#0086FF"/></linearGradient><linearGradient id="paint4_linear_5510_6830" x1="607.852" y1="98.7699" x2="696.947" y2="505.81" gradientUnits="userSpaceOnUse"><stop stop-color="#BEE0FF"/><stop offset="1" stop-color="white"/></linearGradient><linearGradient id="paint5_linear_5510_6830" x1="477.246" y1="85.1734" x2="564.37" y2="85.1734" gradientUnits="userSpaceOnUse"><stop stop-color="#0059AA"/><stop offset="1" stop-color="#0086FF"/></linearGradient><linearGradient id="paint6_linear_5510_6830" x1="512.06" y1="399.24" x2="513.204" y2="399.24" gradientUnits="userSpaceOnUse"><stop stop-color="#4B9ED0"/><stop offset="1" stop-color="#81CCED"/></linearGradient><linearGradient id="paint7_linear_5510_6830" x1="357.479" y1="219.48" x2="357.479" y2="231.33" gradientUnits="userSpaceOnUse"><stop stop-color="#BEE0FF"/><stop offset="1" stop-color="white"/></linearGradient><linearGradient id="paint8_linear_5510_6830" x1="372.336" y1="266.631" x2="279.326" y2="266.631" gradientUnits="userSpaceOnUse"><stop stop-color="#0059AA"/><stop offset="1" stop-color="#0086FF"/></linearGradient><linearGradient id="paint9_linear_5510_6830" x1="372.336" y1="312.417" x2="279.326" y2="312.417" gradientUnits="userSpaceOnUse"><stop stop-color="#0059AA"/><stop offset="1" stop-color="#0086FF"/></linearGradient><linearGradient id="paint10_linear_5510_6830" x1="372.336" y1="358.202" x2="279.326" y2="358.202" gradientUnits="userSpaceOnUse"><stop stop-color="#0059AA"/><stop offset="1" stop-color="#0086FF"/></linearGradient><linearGradient id="paint11_linear_5510_6830" x1="372.336" y1="402.627" x2="279.326" y2="402.627" gradientUnits="userSpaceOnUse"><stop stop-color="#0059AA"/><stop offset="1" stop-color="#0086FF"/></linearGradient><linearGradient id="paint12_linear_5510_6830" x1="372.336" y1="432.084" x2="279.326" y2="432.084" gradientUnits="userSpaceOnUse"><stop stop-color="#0059AA"/><stop offset="1" stop-color="#0086FF"/></linearGradient><linearGradient id="paint13_linear_5510_6830" x1="426.971" y1="126.549" x2="426.971" y2="326.851" gradientUnits="userSpaceOnUse"><stop stop-color="#BEE0FF"/><stop offset="1" stop-color="white"/></linearGradient><linearGradient id="paint14_linear_5510_6830" x1="430.295" y1="250.76" x2="430.295" y2="448.483" gradientUnits="userSpaceOnUse"><stop stop-color="#BEE0FF"/><stop offset="1" stop-color="white"/></linearGradient><linearGradient id="paint15_linear_5510_6830" x1="442.84" y1="247.191" x2="411.803" y2="247.191" gradientUnits="userSpaceOnUse"><stop stop-color="#0059AA"/><stop offset="1" stop-color="#0086FF"/></linearGradient><linearGradient id="paint16_linear_5510_6830" x1="442.84" y1="350.916" x2="411.803" y2="350.916" gradientUnits="userSpaceOnUse"><stop stop-color="#0059AA"/><stop offset="1" stop-color="#0086FF"/></linearGradient><linearGradient id="paint17_linear_5510_6830" x1="344.975" y1="253.304" x2="344.975" y2="260.371" gradientUnits="userSpaceOnUse"><stop stop-color="#BEE0FF"/><stop offset="1" stop-color="white"/></linearGradient><linearGradient id="paint18_linear_5510_6830" x1="344.975" y1="419.031" x2="344.975" y2="426.098" gradientUnits="userSpaceOnUse"><stop stop-color="#BEE0FF"/><stop offset="1" stop-color="white"/></linearGradient><linearGradient id="paint19_linear_5510_6830" x1="372.6" y1="469.157" x2="279.59" y2="469.157" gradientUnits="userSpaceOnUse"><stop stop-color="#0059AA"/><stop offset="1" stop-color="#0086FF"/></linearGradient><linearGradient id="paint20_linear_5510_6830" x1="345.249" y1="474.128" x2="345.249" y2="481.205" gradientUnits="userSpaceOnUse"><stop stop-color="#BEE0FF"/><stop offset="1" stop-color="white"/></linearGradient><linearGradient id="paint21_linear_5510_6830" x1="352.771" y1="148.89" x2="352.882" y2="155.956" gradientUnits="userSpaceOnUse"><stop stop-color="#BEE0FF"/><stop offset="1" stop-color="white"/></linearGradient><linearGradient id="paint22_linear_5510_6830" x1="353.051" y1="166.759" x2="353.162" y2="173.815" gradientUnits="userSpaceOnUse"><stop stop-color="#BEE0FF"/><stop offset="1" stop-color="white"/></linearGradient><linearGradient id="paint23_linear_5510_6830" x1="454.963" y1="211.118" x2="259.996" y2="211.118" gradientUnits="userSpaceOnUse"><stop stop-color="#0059AA"/><stop offset="1" stop-color="#0086FF"/></linearGradient><linearGradient id="paint24_linear_5510_6830" x1="250.475" y1="476.505" x2="249.452" y2="300.496" gradientUnits="userSpaceOnUse"><stop offset="0.299247" stop-color="#BEE0FF"/><stop offset="1" stop-color="white"/></linearGradient><clipPath id="clip0_5510_6830"><rect width="454" height="472" fill="white" transform="translate(36 167)"/></clipPath><clipPath id="clip1_5510_6830"><rect width="193" height="543" fill="white" transform="translate(467)"/></clipPath><clipPath id="clip2_5510_6830"><rect width="194.958" height="422.801" fill="white" transform="matrix(-1 0 0 1 454.958 126)"/></clipPath><clipPath id="clip3_5510_6830"><rect width="307" height="106" fill="white" transform="matrix(-1 0 0 1 677 433)"/></clipPath><clipPath id="clip4_5510_6830"><rect width="474.293" height="323" fill="white" transform="translate(393.612 281)"/></clipPath><clipPath id="clip5_5510_6830"><rect width="75.05" height="237" fill="white" transform="matrix(-1 0 0 1 259.025 346)"/></clipPath><clipPath id="clip6_5510_6830"><rect width="680.722" height="219.728" fill="white" transform="translate(0.586182 485.298)"/></clipPath><clipPath id="clip7_5510_6830"><rect width="285" height="128.175" fill="white" transform="matrix(-1 0 0 1 701 436)"/></clipPath></defs></svg>