<svg fill="none" height="129" viewBox="0 0 120 129" width="120" xmlns="http://www.w3.org/2000/svg" xmlns:xlink="http://www.w3.org/1999/xlink"><filter id="a" color-interpolation-filters="sRGB" filterUnits="userSpaceOnUse" height="128.363" width="120" x="0" y="0"><feFlood flood-opacity="0" result="BackgroundImageFix"/><feColorMatrix in="SourceAlpha" type="matrix" values="0 0 0 0 0 0 0 0 0 0 0 0 0 0 0 0 0 0 127 0"/><feOffset dy="10"/><feGaussianBlur stdDeviation="15"/><feColorMatrix type="matrix" values="0 0 0 0 0.433664 0 0 0 0 0.5186 0 0 0 0 0.61259 0 0 0 0.0412138 0"/><feBlend in2="BackgroundImageFix" mode="normal" result="effect1_dropShadow"/><feBlend in="SourceGraphic" in2="effect1_dropShadow" mode="normal" result="shape"/></filter><g filter="url(#a)"><path clip-rule="evenodd" d="m88.5 51.5833-3.7722-2.1779c-.1134.148-.25.2779-.4055.3845l.243-.4783-.0334-.0193c-.3646.2549-.6619.5952-.8654.9917-.0364-.0306-.0539-.1427-.0746-.2753-.0415-.2657-.0958-.6138-.3408-.5555-.4837.3795-.8604.8782-1.0931 1.4473-.0899.2062-.1503.424-.1793.6471-.0328.1376.0031.2826.0962.3891.0472-.0585.0953-.1155.1434-.1725.0633-.075.1268-.1503.1889-.2297l.3148-.4373.6078-.8307c.1353.1041-.0545.3836-.2542.6777-.2196.3235-.4512.6646-.2749.8089-.3236.2371-.6579.4636-.9915.6896-.1893.1282-.3783.2562-.5651.386.1793-.1574.6865-.6864.3411-.6602-.3769.3195-.4194.3218-.5261.3274-.0641.0034-.1514.0081-.3484.0836.2751-.6058.5088-1.2296.6996-1.867.1777-.5897.3107-1.1919.3979-1.8015l-.5641.787h-.3104c-.7011.8784-.7955 2.4132-.8361 3.0734v.0002.0003c-.0045.0724-.0083.1343-.0122.1836-.6252.3717-.8832-.3847-.8439-.6077-.5377.4054-.6657.8148-.7903 1.2133-.1348.4309-.2655.849-.9062 1.2352l.5378-.1749c-.1029.1087-.3695.2813-.622.4448h-.0001l-.0002.0002c-.3266.2114-.6293.4073-.5232.4295-.3236 0-.7565-.2055-.6778-.4635l-.5887 1.2031c.0333-.1085-.0894-.2918-.1954-.4499v-.0001l-.0001-.0001c-.0732-.1093-.1384-.2065-.1384-.2589-.4066.2536-.3498.9838-.0612.9838-.3714.0622-.5668.1093-.7108.144-.251.0605-.3463.0834-.9463.0834-.2318.1924.3541.5378.5815.481-.3307.3529-.7507.6097-1.2155.7433.1655-.1101.2735-.2882.2946-.4859.0212-.1978-.0468-.3946-.1853-.5373-.0687-.0933-.1472-.1837-.2235-.2714h-.0001v-.0001c-.1667-.1916-.3225-.3708-.3405-.5417-.3673.9302-.8059 1.8307-1.3117 2.6934.0229-.2685.0008-.539-.0656-.8002.0219.2799-.5772.7434-1.4517 1.1019-.8425.3523-1.7382.5607-2.6497.6165l.2143-.0306c.1399-.1093-.1006-.1661-.4373-.1661-.1805-.0131-.3617-.0131-.5422 0-.1631.0048-.3248.0312-.4809.0787.086-.0861.178-.0839.3289-.0804.0331.0008.069.0017.1083.0017-.1919-.0866-.4069-.1081-.6121-.0613-.179.0472-.351.1178-.5116.2099-.355.2307-.8175.2095-1.15-.0525.1783.0521.3615.0858.5466.1006.1134.007.2272-.0048.3367-.035.1237-.0222.2083-.1376.1924-.2623-.4808.0206-.9621-.0265-1.4298-.1399l-.328-.0394c-.0841-.0112-.1694-.0112-.2536 0-.1399.0262-.2142.1093-.1792.293-.1002-.0681-.2038-.1309-.3105-.188-.0962-.0569-.1836-.1094-.2492-.1575-.1181-.1005-.2055-.1967-.1181-.3366-.6299-.152-1.2392-.3795-1.8145-.6778.0787.0175.1923.0132.1923-.0481.0046-.0485-.0095-.0969-.0393-.1355-.047-.0693-.0994-.1347-.1569-.1955.0811.08.1703.1513.2662.213.1087.0728.2211.1399.3367.2011.2405.105.4635.1924.6777.2667.1962.0583.3877.1314.5728.2187.159.0673.2923.1837.3804.3323.056-.1209.0658-.2383.0748-.3461.0177-.2118.0322-.3861.3887-.476-.1646-.0453-.3238-.0887-.4782-.1309-.6495-.1772-1.2157-.3317-1.7561-.5118-.671-.1994-1.3058-.505-1.8802-.9051-.0535-.107-.1197-.2599-.1636-.3612l-.0002-.0006-.0007-.0015c-.0131-.0303-.0242-.0558-.0322-.074-.035-.0787-.0656-.1486-.0962-.2273l-.07-.2318c-.1052-.2986-.1842-.6058-.2361-.9182h-.1924c.1021-.1489.2208-.2896.3359-.426l.0095-.0112-.0491-.0571c-.1319-.1529-.2231-.2585-.1957-.3015.0306-.0481.1005-.0043.188.0656-.0467-.1431-.1113-.2798-.1924-.4066.2095-.0986.5002.1194.7921.3383l.0561.0421c-.0511.1616-.0905.3268-.118.4941.1215.1121.2738.1852.4372.2098.1181-.0043.1881-.0874.1881-.3016-.0572-.0538-.1112-.1107-.1618-.1706.223.1312.411.1837.411.0394-.1868-.3301-.342-.677-.4635-1.0363-.0202.0695-.0565.1597-.0994.2665v.0001c-.0408.1014-.0876.2178-.1323.3455-.0915-.1336-.1801-.2757-.2653-.4124-.1267-.2032-.2458-.3943-.3556-.5276-.1837-.223-.3586-.2711-.4766.1137.0545-.3358.126-.6685.2142-.997-.1504-.3434-.2718-.6988-.3629-1.0625-.0568-.2667-.1049-.5597-.2055-1.233.0722-.0247.1312.0298.1863.0807.0717.0664.1368.1266.216-.002-.1435-.523-.0677-1.0819.2098-1.5479l.0533-.1089c.204-.4161.3634-.7413.1741-.8661-.0024-.4324-.11-.4963-.212-.5569-.0806-.0479-.1578-.0938-.1771-.3176l.0046.003c.0489.0312.132.0844.1659-.0511l-.2186-.634c.0626-.0895.0952-.0106.1289.0711.0487.1179.0998.2415.2471-.128-.0262-.2929-.0262-.5553-.0262-.7957 0-.1238.0069-.2428.0137-.3585v-.0001c.0063-.1091.0125-.2152.0125-.3192.0304-.4368.1293-.8662.293-1.2724.127-.715-.1041-.5393-.2937-.3951-.1629.1239-.2951.2245-.1436-.2826.4337-.0899.7674-.4375.8395-.8745-.0347-.1501-.0844-.2488-.1315-.3426-.0833-.1657-.1587-.3159-.1308-.7068l.3804.1443c.0165-.0725.0318-.1434.0465-.2117.1027-.4754.1789-.8278.4388-.759-.0369-.3608.0428-.724.2274-1.0362.0413-.7259-.5833-.0687-.9559.3234-.1009.1063-.1834.193-.229.2275.2075-.2995.3362-.5773.4508-.8247.185-.3991.3333-.7192.7166-.9243-.0146.086-.0296.172-.0447.258v.0001c-.0301.172-.0602.3439-.0865.5158.3268-.4024.4921-.9121.4635-1.4298-.0087-.2973-.0044-.4809.5247-.7039-.2142.5247-.2055 1.2417.1049.9925.0132-.2798.0306-.564.0569-.8395.0573-.0248.0487.0604.0408.1381-.01.1002-.0189.1879.1166.0106-.0065-.1773-.0196-.3542-.0392-.5303l-3.3816-1.9524c-.105.1665-.1598.3311-.2089.4782-.0962.2885-.1701.51-.5548.5484-.1474.2433.0415.1979.2126.1569.2195-.0527.4097-.0984-.1776.4815-.413.1245-.8051.3102-1.163.5509-.2405.3761.3629.1094.634-.1136-.7521.7389-1.1937.7389-1.5654.7389-.206.0076-.4078.0614-.5903.1574-.3155.1608-.594.3857-.8176.6603.2778-.0926.3097.0265.3386.1341.042.1567.0775.289.8551-.2915-.2832.2764-.6278.4817-1.0057.599-.3902.1212-.7357.3556-.9925.6733l.2273-.6209c-.2083.1609-.3923.3509-.5465.5641l-.105-.2886c-.0624.1177-.1404.2266-.2317.3236-.0861.083-.1798.1576-.2799.223-.188.1168-.3854.2177-.5902.3017l-.0007.0003c-.367.1748-.7252.3453-.8738.7823.083-.3366-.0919-.2361-.3542-.0699l-.0301.0191c-.2598.1648-.6088.3862-.8444.3525.4449-.3161.9193-.5885 1.4167-.8132.2029-.0973.3913-.2224.5597-.3717.1311-.1224.1967-.2405.1574-.3629-.1812.038-.3489.1241-.4854.2492-.1432.1261-.3189.2094-.5072.2405.1158-.1042.2253-.2151.328-.3323.0755-.0871.136-.1861.1792-.293-.5026.1601-.9711.4122-1.3817.7434-.3207.2872-.6744.5353-1.0537.7389.4502-.1563.8886-.3448 1.3117-.564.0481.2492-.0962.3323-.2798.411-.2249.0584-.4199.1987-.5466.3935-.1792-.0115-.3591.0048-.5334.0481-.1741.0327-.3451.0795-.5116.1399-.2915.1266-.6111.1749-.927.1399.0802-.0042.1237-.0216.1659-.0386.0169-.0067.0336-.0134.0523-.0192-.5824.0635-1.1698-.086-1.6523-.4231-.1881-.1443-.3323-.2668-.4635-.3892-.1131-.1153-.2465-.2086-.3935-.2755-.0783-.0479-.171-.0886-.2683-.1312h-.0001v-.0001c-.0713-.0312-.1449-.0634-.217-.1004-.0741-.038-.1523-.0718-.2292-.1052-.1002-.0434-.1983-.0858-.2824-.1353-.1176-.0641-.2445-.1098-.376-.1355-.0743-.0088-.1268.0393-.0743.1574-.1312-.0744-.0831-.0131.0568.1093l.2536.2274c.0642.0553.1399.1068.2157.1583.0379.0258.0758.0515.1123.0778l.1661.118.1399.0875c.0796.0527.153.1143.2187.1836.0874.1137.0524.2143-.2711.2449-.0819-.1346-.1772-.2605-.2843-.3761-.097-.1116-.2054-.2127-.3235-.3017-.0421-.0327-.0837-.0666-.1258-.1009l-.0001-.0001c-.0761-.062-.1542-.1257-.2414-.1875-.1398-.1019-.2728-.2129-.3979-.3323-.3191-.2688-.577-.6028-.7564-.9795-.2094-.4429-.3012-.9323-.2667-1.421.2186.4154.2929.2536.3629.1005l.0077-.0169c.0666-.1467.1255-.2765.294.0519-.0646-.2795-.1569-.552-.2755-.8133-.0885-.1516-.1863-.2977-.293-.4372.0515-.0707.1029-.1367.156-.2049l.0002-.0002.0001-.0001.058-.0746c-.2203-.3911-.3455-.5258-.4344-.6212-.1545-.1661-.1985-.2135-.4401-1.2852.103.2953.1869.0895.2685-.1108.0742-.1822.1466-.3599.23-.1516.0126-.433-.0617-.8642-.2187-1.268l.035.0656c-.0353-.3226-.0353-.6481 0-.9707.0208-.1924.0515-.3836.0918-.5728.0402-.1766.0621-.3568.0656-.5378.0027-.292-.0104-.5839-.0393-.8745l-.1531.1487c-.0592-.5445-.0826-1.0922-.0699-1.6397.0306-.5815.0874-1.1674.1486-1.749.0475-.352.0985-.7036.1505-1.0521l-7.009-4.0467c-2-1.1547-4.5.2887-4.5 2.5981v32.5849c.3053-.034.5735-.0154.7638.0994-.2657-.2205-.1774-.2551.0005-.3248.0993-.0389.2264-.0887.3357-.1878l-.4397-.3383.8535-.1537c.1655-.082.2224-.0769.2224-.0359.0585-.006.0745.0332.095.0833.032.0783.0749.1832.3085.1832.4176-.0544.5342-.1912.6807-.3628.0603-.0707.1257-.1473.2193-.2266l-.1087-.0513c.0466-.0098.0915-.0218.1367-.0339.0955-.0255.1923-.0514.3082-.0583.1093-.0066.0297.0479-.0879.1283-.0659.0451-.1438.0983-.207.1536-.1758.1537-.2431.3229.2742.369.0679-.1574.1836-.2899.331-.3793.1914-.1281.4397-.1999.5948-.0461-.5896-.0154-.481.2922-.2844.4049.2719.0097.5431.0353.812.0769-.0724-.1896-.15-.3793-.2327-.5587.3194.0206.6363.0704.9465.1487.1652.0411.3275.0925.4862.1537.1108.0476.2189.1004.3263.1528.043.021.086.042.1289.0625.3061.1523.5941.338.8586.5535.134.1036.2586.2185.3724.3434.1203.1173.2326.2423.3362.3742.1987.2562.3719.5309.5173.8201.1457.2738.2702.5582.3724.8508.0535.139.0984.281.1345.4254.0145.0505.0303.1009.0461.1511.0291.0927.0579.1846.078.2743.0195.1062.0434.2131.0673.32.0395.1768.0789.3532.0982.5257-.2035.0215-.1968.2908-.1892.5944.0015.0591.003.1195.003.1796 0 .369-.0672.7021-.4189.615l.0672-.082c-.0414-.2563-.181-.205-.2948-.0513-.1235.1598-.1858.3577-.1759.5587.0993-.1833.2497-.0585.386.0546.02.0166.0397.0329.0588.0479.15.1179.3156.1435.3673-.369.0981.2284.1752.4602.2543.6985.0168.0505.0337.1012.0508.1523.6569.2819.5794.8867.3259 1.5377-.0851.2205-.1826.4369-.2794.6518l-.0001.0001c-.0562.1247-.1121.2489-.1653.3731-.0101.0266-.0234.0537-.0368.0809v.0001c-.0279.0569-.0563.1147-.0563.1702-.0289.0788-.0531.1593-.0724.2409-.0415.1553-.0573.3163-.0466.4766-.0165-.0696-.0641-.1281-.1293-.1588.0708.7204-.3507 1.3913-.6495 1.8671-.1817.2892-.3181.5063-.2712.6187l-.3827-.0308c.2482 1.0405.2534 1.1686-.3518 2.1066-.0087-.0095-.0175-.0213-.0266-.0336-.045-.0602-.0996-.1335-.2113-.0228.2269.4227.1949.9358-.0828 1.3275l-.0931-.0717c-.1034.2921-.2172.5894-.331.8867l.3621-.2409c-.2656.3312-.0691.3692.1374.4091.0268.0052.0537.0104.0798.0163-.0362-.4767.0931-.6407.5793-.6868-.3414-.4665-.6931-1.0251-.0983-1.5377 0 .0538-.0189.1083-.0363.1581-.0305.0878-.0561.161.0363.1905.1449.0461.2225-.1743.2225-.2512.0637.0187.0693.0791.0756.1484.0076.0826.0164.178.1261.2309-.0039-.2909.1639-.5573.4293-.6817.0423-.0266.0845-.0519.1284-.0781.0742-.0443.153-.0913.244-.1525.1634-.106.3098-.2355.4345-.3844-.082.2215.032.2568.1755.3014.0558.0173.1161.036.171.0676-.1706-.287.1552-.3485.4242-.3793l.0093-.0011c.2645-.0302.4675-.0533.1045-.3269.4386-.1246.9091-.3067 1.3928-.494h.0001c.4516-.1749.9148-.3542 1.3743-.4952.9517-.2922 1.9707-.2563 2.3121.0871.1138.1128.2948.1128.5172.1128.2175-.0283.4385-.0073.6466.0615l-.1655.2511c.1981-.0387.4019-.0387.6 0 .1225.0189.2412.0569.3517.1128l.3672.1742c.2351.1013.4631.2177.6828.3486-.3155-.1077-.4604-.0667-.5173.0512-.0363.1931-.0363.3912 0 .5843.3188.0915.626.2187.9156.3793l-.3621.3127c.2408.2206.3568.5444.3103.8662.2643.1204.4652.3455.5535.6201.037.0851.0699.1698.1011.2501.091.2342.1674.4307.2868.488-.3032.1725-.2475.3609-.1961.5348.0494.1672.0948.3208-.1866.4339.0936.0922.1706.1997.2275.3178.269-.1384.569-.1999.4449.0512v.0564l-.3569.1179c.082.2159.1342.4417.1552.6714.0418-.0943.0995-.181.1706-.2562-.033.0687-.0702.1353-.1063.1998-.0204.0366-.0405.0725-.0592.1077.0029.029.0029.0581 0 .0871-.002-.017-.002-.0342 0-.0512-.0924.1585-.0924.3539 0 .5125-.1936.4592-.1766.9791.0466 1.4249.2362.4806.1886 1.0507-.1242 1.4864.088-.1384.1242-.3434 0-.405-.0225.3969-.1135.7869-.2689 1.1533-.0985.1951-.1458.4097-.14.6246l39.3279-22.706c2-1.1547 2-4.0415 0-5.1962zm-28.1825 6.1907c.0131.0138.0264.0273.0399.0406-.013-.0138-.0263-.0273-.0399-.0406zm15.3386-1.5085c.0066-.0092.0114-.0192.0147-.03zm-29.1373 24.7518c-.0524-.0009-.1041.0102-.155.0373.0217 0 .0434.0054.0647.0149l-11.9285 6.8869c-2 1.1547-4.5-.2887-4.5-2.5981v-27.1937c.0241-.0198.0477-.0404.0707-.0618.2793-.2101.5172-.369.8741 0 .1864-.5959-.3589-.4383-.6572-.3521-.1404.0406-.226.0653-.1548-.0118-.3104-.164.2379-.6663.6051-.697.1358-.0408.301.0773.5009.2202.0514.0368.1051.0752.1612.1129.2791.22.64.3087.9892.2449-.018.0085-.0304.0217-.0432.0353-.0188.02-.0383.0407-.077.0479.1575.0475.2888-.0268.4228-.1026.1696-.096.3436-.1944.5806-.0512.0665-.244.174-.2638.2685-.2812.1038-.0191.1919-.0353.1919-.3441-.238.0666-.4862.1486-.7345.2409.1074-.0612.2051-.1543.3075-.2518l.0001-.0001c.0948-.0902.1936-.1843.3079-.2607.2333-.2422.6-.3027.9-.1486-.1116.1394-.2463.2589-.3983.3537.0937.0827.1848.0575.2735.033.0926-.0256.1824-.0505.2696.049-.0611.2877-.2276.302-.4599.322l-.0108.0009c-.278-.019-.5493.0908-.7345.2973.1034.089.2564.004.3834-.0664.1655-.0918.2867-.1591.196.215.1138-.41.3-.3844.4706-.3229.1872.1256.4399.0901.5845-.082l-.1293.328c.0673-.041.2276-.1384.3311-.0923-.1185.1102-.2291.2284-.3311.3537.0542-.0544.1373-.0688.2069-.0359.0275.0188.0504.0433.0673.0718.0158.0359.0262.0739.031.1127.0107.066.0263.1311.0465.1948 0 .0615.0414.0974.119.0871-.15-.1383-.1293-.2152-.0414-.3382.0213-.0298.0459-.0581.0705-.0863.077-.0884.1535-.1763.1261-.3084.2327 0 .331.0974.3569.1999.0122.1283-.0207.2569-.0931.3639-.0705.1207-.1294.2477-.1759.3793-.0177.062-.0177.1276 0 .1896.0072.0333.0213.0647.0414.0923.0115.0294.0272.057.0465.082-.0224-.0665-.0224-.1385 0-.205.0363-.0872.1087-.1794.2276-.1487.0053.046.0053.0924 0 .1384.0054.0546.0054.1095 0 .164-.0201.1037-.0663.2007-.1345.2819.1242.2666.2121.2256.2897.123l.0084-.0112.0126-.017c.0727-.0987.1574-.2138.2893-.1204-.1977.199-.0651.2554.1201.3341.1248.053.2735.1161.361.24l-.3517.0666c-.0544.4162.1273.4629.297.5064l.0236.0061.0337.0086c.1653.0413.3267.0816.225.504-.1606-.103-.3212-.1974-.4739-.2872l-.0006-.0003-.0001-.0001-.0427-.0251c.0198.0567.0433.1133.067.1703.0321.0772.0644.1551.0882.2346l-.4138-.0717c.1085.134.1767.2957.1966.4664-.0166.1758-.0584.3484-.1242.5125.1588-.0309.3231.0135.4439.1202.1209.1067.1844.2633.1716.4231-.1052.1109-.178.0918-.2292.0783-.0695-.0182-.0994-.0261-.1173.3164l-.0334-.0265c-.2029-.1604-.4086-.323-.0752-.5271-.0554-.0174-.1071-.0543-.1587-.0911-.0544-.0388-.1088-.0776-.1672-.0934-.193.1876-.1836.4756-.1763.699.0029.0878.0055.1657-.0047.2236.0224-.078.0653-.1487.1241-.205.0436.1043.0821.2112.1208.3189.0165.0456.0329.0914.0499.1373.0569.1537.1086.3126.1552.4715-.1655.1025-.2483 0-.3259-.1538 0 .0715.0221.1372.0459.2076.0358.1064.0752.2235.0472.387-.0442-.0243-.0894-.0466-.1343-.0688-.202-.0999-.397-.1964-.4605-.4438.0407.2473.0614.5343.0818.8171l.0009.0133c-.0557 0-.1435.059-.2316.1183-.1244.0836-.2493.1677-.2856.0867-.1378.1906-.1065.4818-.0729.7941.0395.3677.0822.7647-.1443 1.0613.0554.0811.0793.1795.0672.2768-.0753.1642-.1726.3132-.2698.462-.2362.3619-.4714.7221-.3871 1.296l-.6414.1948c-.0384.2505.1135.2286.2835.2041.2193-.0316.4689-.0677.3786.4724-.0617.4314-.25.3471-.4353.2642-.1097-.0491-.2184-.0978-.2992-.0387l.0155.0502c.1283.414.3466 1.1184-.2741 1.4875 0-.1358.049-.2346.0964-.3299.0295-.0595.0584-.1177.0743-.1827l-.4552.3075c-.0772-.2558-.0852-.4612-.0908-.6067-.0098-.2538-.0125-.325-.3644-.1621.461.2349.2952.6581.1291 1.082-.1637.418-.3277.8366.1089 1.0758l-.3259.1897c.0233-.0385.0233-.0667.0233-.0948 0-.0282 0-.0564.0233-.0949-.3498.1656-.2293.3481-.0833.5693.1433.2171.3113.4716.0833.7839-.1914.2101-.4138.3075-.4345.0922l-.0621.6509c-.0828.1179-.1862.0564-.1707-.041l-.1293.2973c.1569.409.3318.8136.5055 1.2152l.0001.0002c.0896.2072.1788.4137.2651.6195.3103.6834.6414 1.3668.9931 2.0502.0776.1589.1603.3178.2431.4715.0861.0297.1722.0701.2563.1096h.0001l.0001.0001c.032.015.0638.03.0952.0441.2548-.2076.1117-.2361-.0655-.2712-.2077-.0413-.4623-.0919-.1776-.4515.5051-.2738.6809-.6564.9602-1.2638l.0004-.0008c.0238-.0518.0483-.1052.0739-.1603.2439-.1027.2524.0048.2606.1092.0058.0728.0114.1441.0963.142v-.5126c.0678-.0527.122.0382.1541.0921l.0062.0104c.0543-.141.0009-.2273-.0539-.316-.0708-.1145-.1441-.233.0074-.4784-.117-.2091.1191-.26.4217-.3251.3796-.0818.8639-.1861.8869-.6538.1135 0 .1451.0843.1797.1764.0268.0715.0554.1477.1255.1926.2584-.4801.4333-.9999.5172-1.5377l.6518-.1537c-.5638 0-.4294-.6612-.2845-1.2404-.1814-.0297-.3646-.0468-.5483-.0512l.4241-.7022c.1293 0 .1707.1691.2018.4049.0155-.0591.0276-.119.0362-.1794.331-.0461.3982.2563.4189.5843l-.4034-.041c.0053.3243.122.6371.331.8867.013-.0949.0504-.1849.1086-.2614 0 .0871.0362.164.0828.1845.0387.0171.0452-.0688.0553-.2015.002-.0268.0042-.0554.0068-.0855l.481.2922-.1035-.1897.9828-.3895c.0499-.2103.0878-.4278.1265-.6495.0414-.2376.0836-.4802.1425-.7241.1079-.5056.3654-.9677.7396-1.3275 0 .3072.1247.4505.2714.6192.081.0931.1687.1938.2459.3341-.2535-.123-.4035.0359-.5173.2563-.0387.0576-.0745.1211-.1105.1849l-.0001.0001-.0001.0002c-.0312.0553-.0626.111-.0962.1633-.0756.1193-.1783.2193-.3.2922.2742-.1538.3569.0666.3466.1691l.2379-.4664.2638-.4613c.1363.2238.2427.1964.3899.1586.0652-.0168.1383-.0356.2256-.0356-.1107-.0696-.1778-.1904-.1778-.3203 0-.13.0671-.2508.1778-.3204.2162-.1554.4202-.3267.6104-.5125.1241.2204.1551.4715-.2793.6355.181.0667.2741.0308.3362-.0564.0582-.1101.095-.23.1086-.3536.0517-.2819.1241-.5638.4448-.4357-.0215.0096-.0417.0168-.06.0233-.07.0248-.1137.0403-.1055.1459.0451-.0799.1137-.1442.1965-.1845.0864-.039.1794-.0616.2742-.0667.181 0 .3155.0615.2741.1794l-.0983.0308c.153-.0223.3293-.0504.5105-.0793.2355-.0375.479-.0763.6895-.1052l.2587-.0462c.0525 0 .1072-.0186.1587-.0361.0295-.0101.058-.0198.0844-.0254.1571-.0348.2975-.1215.3983-.246-.0207.0358-.1239.1994-.2304.3683l-.0005.0007-.0002.0004c-.1066.169-.2164.3431-.25.3994.0642-.0746.1352-.1433.2121-.205.0529-.0449.1085-.0844.1649-.1244h.0001c.0208-.0148.0417-.0296.0626-.0447.1726-.1112.3585-.2008.5534-.2666.2046-.07.4161-.1181.6311-.1435.2301-.0282.4629-.0282.6931 0-.3326.2072-.6428.4477-.9259.7176-.2557.2333-.5803.3788-.9259.4151.0005.0632.0128.1258.0362.1846.0311.0615.088.1025.2328.1793.0912-.1206.2012-.2261.3259-.3126.1551-.1179.3155-.2204.3724-.164-.0659.1266-.1149.2166-.1522.2852-.0594.1092-.0894.1644-.1116.2273-.052.1701-.1283.3318-.2265.4803-.01.0103-.0174.0211-.0218.0323.0074-.0107.0147-.0215.0218-.0323.0724-.074.2819-.1215.4954-.1215.2431 0 .4656.082.4811.2358-.0456 0-.1551.0205-.2842.0448-.2336.0438-.531.0996-.6278.0671l-.0191-.0094c.0051.0037.0115.0068.0191.0094.31.1539.6049.3361.8809.5441-.2068-.1179-.6879.0872-.8948.2563.0776-.0461.088.1076.088.3075-.0234.1821-.0234.3664 0 .5485l.1862-.3435c-.0522.4525.2562.6611.5728.8751.3109.2103.6297.4258.622.883-.1811-.1128-1.0811-.2512-1.1742.205.4074.1785.803.3822 1.1845.6099.4831.2573.8775.6517 1.1328 1.1327l-.2535.1538.2638.6509c-.8837-.642-1.7139-1.3533-2.4827-2.127-.0773.1244-.138.1695-.1832.203-.0757.0563-.1078.0801-.1013.3915-.2379.1692-.3466-.2767-.3517-.4203l-.1862 1.1481c.2728-.0189.3916.2331.5045.4725.1011.2145.1975.4188.3955.4091l-.4862-1.2865c.5172-.0461 1.4068.774 1.2982 1.6248-.1462.138-.4989-.0051-.7578-.1102-.1257-.051-.2293-.093-.2767-.0897.1811.1179.2638.8047.1397.8765l-.2379-.3691c-.0986.1909.0007.3673.1021.5476.1329.2362.2695.479-.0297.7697-.0194.0788-.1415.1807-.2568.2768-.1621.1352-.3107.2591-.1415.2921.6982-.1683 1.422-.1853 2.1228-.0533zm16.5409-44.122 19.1775 11.0722c-.1886.1375-.3726.2816-.5515.4319 0-.1355.2362-.3104.4373-.3935-.7389.2099-1.2155.7827-1.679 1.3511s-.9401 1.115-1.5829 1.3117c-.1387.224-.3526.3914-.6034.4723.0222-.016.0402-.037.0525-.0613l-.1049.0787c-.0304.0105-.0609.0207-.0917.0309l-.0291.0097-.0002.0001c-.102.0338-.2069.0686-.3163.1124.132-.0218.2611-.0585.3848-.1093-.2507.2118-.4846.4428-.6996.6908l-.3104-.1574-.0613.0569c-.3541.1136-.1486.2798.14.3541-.1107.1339-.2047.2807-.2799.4373-.2564-.1133-.4251.0481-.604.2192-.1873.1791-.3857.369-.7077.2661-.0205.1362-.2384.3535-.4863.6008-.3331.3323-.7204.7186-.7555 1.0345-.3724.1284-.7033.355-.9576.6559l-.3498-.2361-.0531.1005-.0001.0001c-.1397.2643-.2798.5294-.4234.7739-.5815.0655-.8307.0437-.529-.4679-.2411.3084-.5236.5821-.8395.8133-.0311.0264-.0627.0511-.0955.0768-.0594.0465-.1226.096-.1931.1637-.1093.1049-.2536.2448-.4373.4372l-.0524-.2492c-.1135.0567-.2402.1558-.3694.2568-.2492.1947-.5075.3966-.6975.316-.2653-.0492-.6865.0245-1.2071.1156h-.0001c-.406.0711-.8725.1527-1.3726.1948-.5757.0477-1.1553.0168-1.7227-.0918-.5462-.0859-1.0696-.2807-1.5391-.5728.0525.4066-.1443.2624-.3629.0481l-.1662-.153c-.048-.0501-.1007-.0955-.1574-.1356-.0438-.0354-.1004-.0508-.1561-.0424-.0556.0083-.1053.0395-.1368.0861 0-.0565-.0129-.115-.0249-.1693-.0316-.1431-.0567-.2571.1779-.2285-.192-.0714-.3697-.1766-.5247-.3105-.0657-.055-.1284-.1134-.188-.1749l-.1531-.1749c-.1833-.2453-.4434-.4223-.7389-.5028.0446-.0963.1334-.0892.2108-.0829.0667.0054.1248.0101.139-.0527-.0591-.0214-.115-.0508-.1662-.0874-.0565-.0367-.0844-.1047-.0699-.1705.0325-.0857.1008-.0437.1862.0088.0411.0252.0861.0528.133.0699-.0326-.0326-.0595-.0671-.0851-.0999-.0294-.0377-.0571-.0732-.0898-.1013-.0377-.0322-.0753-.0628-.1109-.0918-.0223-.0181-.0438-.0356-.064-.0525-.1021-.0747-.2205-.1241-.3455-.1443-.2508-.0295-.505-.0087-.7476.0613.1008-.4303-.0728-.8783-.4373-1.1281.0141-.0225.0281-.0464.0422-.0703.0517-.0879.104-.1768.1589-.2008.07-.0306.1356.0568.2187.3673-.0263-.1793-.0394-.7346-.0394-1.2681 0-.5334 0-1.0493-.2186-1.0843.1093-.1181.0656-.5553.0306-.669.0323-.2489.0581-.4352.0799-.593v-.0001c.0579-.4187.0879-.6361.1387-1.2871l-.1005.2405c-.276-.2593-.2037-.4943-.105-.8148.0576-.1874.1243-.404.1356-.6718l.0481.0262c.1821-.3596.2807-.7557.2885-1.1587-.0048-.1165.0084-.233.0394-.3454.0769-.27.1794-.5321.3061-.7827l-.3149.0306c-.306-.1399-.1355-.4809.1006-.9094.2984-.4225.4877-.9122.5509-1.4255l-.2492.2974c-.0481-.2843.2536-.5903.5903-.8745.3329-.2161.6259-.4884.8657-.8046.0651-.0752.0551.0851.0456.238v.0002c-.0027.0424-.0053.0843-.0062.1204.3888-.6488.2632-.6816.0903-.7267-.1499-.0391-.3353-.0875-.2521-.5545.0926-.0439.1751-.0073.2545.028.1418.063.2738.1217.4364-.2903.0989-.1055.1058-.4275.1145-.8327v-.0003c.0028-.1319.0058-.2726.0123-.4175-.0163-.5742.1456-1.1394.4634-1.6178-.2186.1443-.4372.2885-.411-.2012.0175-.0693.0431-.1409.075-.2144zm-9.8518-2.1073c.9191-.6322 1.7977-1.3208 2.6307-2.0618l-11.9272-6.8861c-.0043.0224-.0085.0448-.0125.0674-.0918.4372-.1749.8745-.2273 1.3117-.0526.4108-.0526.8266 0 1.2374-.1108.2277-.2148.2091-.3057.1928-.103-.0184-.1893-.0338-.2496.3144.3168-.4296.345.0883.371.5663l.0006.0109.0058.1092c.0233.4437.0452.8623.1866.7653-.2433.2885-.2938.7552-.3388 1.1716-.0595.5491-.1094 1.0108-.5794.8616-.0437.822.3673.6646.4373.4372 0 .0747-.0015.1498-.003.2246v.0001c-.0029.1486-.0058.296.003.4356.0131.2099.0349.411.0568.6077.0461.3862.1493.7635.3061 1.1194-.0383.6752.1132 1.3477.4372 1.9414.1854.3114.4271.5857.7127.8089.034.0294.0692.0554.1037.0808.0321.0237.0636.0469.0931.0722.0485.0416.0999.0778.1496.1127v.0001l.0384.0271c.1071.0828.2053.1766.293.2799-.2119-.3164-.1294-.3089.0669-.2911.1239.0113.293.0267.4621-.0325-.1175-.1258-.2215-.2636-.3104-.411.1437.0353.2899.0602.4372.0743h.2318c.08.0066.1604.0066.2404 0 .1924-.0437.2537-.0306.2537 0 .0629-.0016.0744.0287.0895.0687.0249.0656.0597.1572.3477.1762.1487-.0253.295-.0633.4372-.1137.0902-.0379.173-.0912.2449-.1574.0673-.0534.1198-.1165.1777-.1863.0513-.0618.1069-.1287.1808-.1985h-.1224l.223-.0918.2186-.1093c.1306-.0446.0222.057-.1105.1814-.0495.0463-.1023.0959-.1474.1421-.1662.1706-.2449.3542.3672.2274.0557-.1646.1484-.3142.2711-.4372.1618-.1793.3586-.3411.5597-.2974-.2711.1312-.3716.2405-.3673.3192.0044.0787.1181.1312.2449.1312l.4066-.1968.411-.2273-.4941-.2449c1.2015-.6514 2.369-1.3636 3.498-2.1337z" fill="#fff" fill-rule="evenodd"/></g></svg>